<svg width="52" height="52" viewBox="0 0 52 52" fill="none" xmlns="http://www.w3.org/2000/svg">
<g clip-path="url(#clip0_5541_50569)">
<path d="M27.4355 46.8982L0.461179 31.245C0.25519 31.1255 0.106389 30.9015 0.0389293 30.5816C-0.123752 29.822 0.233259 28.7999 0.926181 28.0417L27.9005 43.695C27.2075 44.4535 26.8508 45.4753 27.0132 46.2348C27.0807 46.555 27.2295 46.7787 27.4355 46.8982Z" fill="#B95D14"/>
<path d="M50.8835 33.9026L50.5889 34.075L47.0588 36.1078L39.4897 40.4709L35.1558 42.9706L28.557 46.7751C27.7949 47.212 27.1728 46.998 27.0123 46.2343C26.9291 45.8448 26.9826 45.3871 27.1492 44.9294C27.3041 44.4956 27.5628 44.0645 27.8993 43.6961L42.3827 28.419L44.5139 26.1749L48.2198 22.2665C49.8419 20.5544 49.6128 17.8734 47.8536 16.4438L48.5351 16.9165C50.3777 18.2036 50.6456 20.825 49.0976 22.4567L48.2017 23.4017L45.1985 26.57L43.0703 28.814L42.24 29.6909L32.4266 40.0401L31.5963 40.917L28.2597 44.436C27.9709 44.7511 27.8696 45.0927 27.8727 45.3485C27.8727 45.4079 27.8785 45.4644 27.8904 45.5121C27.9471 45.7766 28.1494 45.9756 28.5542 45.7439L34.26 42.4536L47.1809 35.0054L50.467 33.112C50.4759 33.1062 50.4879 33.1001 50.4967 33.0942C51.598 32.4345 51.7677 30.9841 51.0056 30.0804L51.3002 30.3567C52.3867 31.3791 52.1783 33.1566 50.8835 33.9026Z" fill="#E97D35"/>
<path d="M44.514 26.1759L42.3828 28.4197L44.511 26.1729L44.514 26.1759Z" fill="#DF7E30"/>
<path d="M50.4962 33.0956C50.4873 33.1014 50.4754 33.1075 50.4665 33.1133L47.1804 35.0067L34.2595 42.4549L28.5537 45.7452C28.1489 45.9769 27.9465 45.7779 27.8899 45.5134C27.878 45.4657 27.8721 45.4095 27.8721 45.3499C27.8691 45.0943 27.9704 44.7525 28.2591 44.4373L31.5958 40.9183L32.4261 40.0415L42.2395 29.6922L43.0698 28.8153L45.198 26.5713L50.4723 29.6326C50.5409 29.6742 50.6064 29.7157 50.6689 29.7634L50.9993 30.0725C51.0023 30.0756 51.0051 30.0783 51.0051 30.0814C51.7671 30.9848 51.5975 32.4355 50.4962 33.0953V33.0956Z" fill="#B95D14"/>
<path d="M44.514 26.1759L42.3828 28.4197L44.511 26.1729L44.514 26.1759Z" fill="#B95D14"/>
<path d="M48.2198 22.2664L44.514 26.1749L44.5109 26.1718L42.3827 28.4186L27.8994 43.6957L3.02524 29.26L0.926758 28.0413L22.542 5.24453C23.816 3.90115 25.8459 3.60979 27.4471 4.54013L47.327 16.0753L47.8539 16.4438C49.6129 17.8734 49.8422 20.5543 48.2201 22.2664H48.2198Z" fill="#D06D2D"/>
<path d="M44.514 26.1759L42.3828 28.4197L44.511 26.1729L44.514 26.1759Z" fill="#CF7122"/>
<path d="M42.8254 7.48254L42.5431 6.87378C42.9395 7.72899 42.718 8.83674 41.8549 9.75959L37.3301 14.597L37.6124 15.2058L42.1372 10.3684C43.0003 9.44551 43.2219 8.33775 42.8254 7.48254Z" fill="#B95D14"/>
<path d="M37.3294 14.5965C36.7395 15.2272 35.7384 15.4376 35.0941 15.0661L32.4887 13.5639C32.291 13.45 32.15 13.2939 32.0664 13.1143L32.3487 13.723C32.432 13.9027 32.5731 14.0587 32.7707 14.1727L35.3761 15.6746C36.0202 16.0461 37.0215 15.8357 37.6115 15.205L37.3291 14.5963L37.3294 14.5965Z" fill="#B95D14"/>
<path d="M41.6469 5.91802C43.0095 6.70365 43.1027 8.42405 41.8549 9.75801L37.3301 14.5954C36.7401 15.2261 35.7388 15.4365 35.0947 15.065L32.4893 13.5631C31.8469 13.1927 31.8031 12.3799 32.393 11.7492L36.9178 6.91184C38.1657 5.57788 40.2844 5.13267 41.6472 5.9183L41.6469 5.91802Z" fill="#E97D35"/>
<path d="M40.4627 6.75098L40.7467 7.23278C40.9085 7.50722 40.858 7.88895 40.5837 8.20885C40.2131 8.64131 39.5748 8.79627 39.1568 8.55537C39.0479 8.49272 38.9649 8.40956 38.908 8.31309L38.624 7.83129C38.6809 7.92776 38.7639 8.01092 38.8728 8.07357C39.2908 8.31447 39.9291 8.15951 40.2997 7.72705C40.574 7.40715 40.6242 7.02542 40.4627 6.75098Z" fill="#B6C5D7"/>
<path d="M40.2139 6.50904C40.6319 6.75022 40.6703 7.29495 40.2996 7.72768C39.929 8.16014 39.2908 8.3151 38.8727 8.0742C38.4546 7.8333 38.4163 7.28802 38.7869 6.85556C39.1575 6.4231 39.7958 6.26814 40.2139 6.50904Z" fill="#E2ECF3"/>
<path d="M31.5943 33.1896C31.5929 33.1774 31.5912 33.1652 31.5893 33.153C31.5879 33.1453 31.5876 33.1372 31.586 33.1297C31.5801 33.102 31.5729 33.0749 31.5638 33.0482C31.5638 33.0477 31.5632 33.0471 31.5632 33.0466C31.5552 33.0227 31.5457 32.9992 31.5349 32.9762C31.5282 32.9623 31.5213 32.9484 31.5138 32.9349L31.4225 32.7705C31.4422 32.8062 31.4585 32.8437 31.4719 32.8822C31.4719 32.8827 31.4724 32.8833 31.4724 32.8839C31.4733 32.8866 31.4735 32.8897 31.4744 32.8924C31.4227 32.7325 31.3145 32.5939 31.1498 32.4988C30.707 32.2435 30.0247 32.4021 29.6271 32.8561L25.8488 37.1702C25.5565 37.5039 25.5024 37.9051 25.6714 38.1953C25.6692 38.1911 25.6653 38.1881 25.6631 38.1839L25.7544 38.3483C25.8144 38.4564 25.9049 38.5493 26.0251 38.6189C26.0776 38.6491 26.1334 38.6724 26.1917 38.6912C26.2108 38.6973 26.2308 38.7007 26.2505 38.7057C26.2905 38.7159 26.3307 38.7251 26.3727 38.7303C26.3965 38.7334 26.4207 38.7342 26.4451 38.7356C26.4843 38.7378 26.5234 38.7389 26.5631 38.7373C26.5889 38.7361 26.6145 38.7339 26.6403 38.7312C26.6589 38.7292 26.6772 38.7298 26.6958 38.7267C26.7233 38.7226 26.7508 38.7156 26.7783 38.7098C26.791 38.707 26.8038 38.7051 26.8166 38.7018C26.8232 38.7001 26.8299 38.6993 26.8366 38.6976C26.8743 38.6876 26.9121 38.6763 26.9493 38.6632C26.9651 38.6577 26.9804 38.6508 26.9962 38.6447C27.004 38.6416 27.0117 38.6388 27.0195 38.6355C27.0289 38.6316 27.0387 38.6283 27.0478 38.6242C27.0778 38.6111 27.1078 38.5967 27.1369 38.5815C27.1575 38.5709 27.1775 38.559 27.1975 38.5474C27.2013 38.5451 27.2055 38.5429 27.2094 38.5407C27.213 38.5385 27.2172 38.5366 27.2208 38.5343C27.248 38.5177 27.2749 38.5002 27.3013 38.4817C27.3282 38.4628 27.3546 38.4429 27.3804 38.4221C27.3818 38.421 27.3832 38.4196 27.3848 38.4182C27.3871 38.4162 27.389 38.4143 27.3915 38.4124C27.4148 38.393 27.4381 38.373 27.4604 38.3519C27.4892 38.3248 27.517 38.2959 27.5434 38.2663C27.545 38.2643 27.5467 38.2627 27.5481 38.2607L31.3264 33.9467C31.3594 33.9087 31.3897 33.8702 31.4169 33.8308C31.4183 33.8289 31.4191 33.8269 31.4202 33.825C31.4291 33.812 31.4358 33.7989 31.4441 33.7856C31.4619 33.7574 31.4794 33.7291 31.4938 33.7005C31.5021 33.6842 31.5088 33.6678 31.516 33.6515C31.5277 33.6257 31.5388 33.5999 31.5479 33.5741C31.554 33.5567 31.5588 33.5392 31.564 33.5217C31.5713 33.4968 31.5779 33.4721 31.5829 33.4474C31.5865 33.4294 31.589 33.4119 31.5915 33.3942C31.5932 33.3812 31.5968 33.3682 31.5979 33.3554C31.5987 33.3451 31.5979 33.3354 31.5982 33.3255C31.5993 33.3033 31.5996 33.2817 31.599 33.26C31.5987 33.2487 31.6001 33.237 31.5993 33.2257C31.5985 33.2135 31.5957 33.2015 31.5943 33.1896Z" fill="#E2ECF3"/>
</g>
<path d="M19.7297 10C19.7297 15.3736 15.3736 19.7297 10 19.7297C4.62642 19.7297 0.27027 15.3736 0.27027 10C0.27027 4.62642 4.62642 0.27027 10 0.27027C15.3736 0.27027 19.7297 4.62642 19.7297 10ZM15.0888 5.99232C14.6666 5.57013 13.9821 5.57013 13.5599 5.99232L7.83784 11.7144L6.44011 10.3166C6.01792 9.89445 5.33342 9.89445 4.91123 10.3166C4.48905 10.7388 4.48905 11.4233 4.91123 11.8455L7.0734 14.0077C7.49559 14.4299 8.18009 14.4299 8.60228 14.0077L15.0888 7.5212C15.511 7.09901 15.511 6.41451 15.0888 5.99232Z" fill="#0074F8"/>
<path fill-rule="evenodd" clip-rule="evenodd" d="M10 0.540539C4.77568 0.540539 0.540539 4.77568 0.540539 10C0.540539 15.2243 4.77568 19.4595 10 19.4595C15.2243 19.4595 19.4595 15.2243 19.4595 10C19.4595 4.77568 15.2243 0.540539 10 0.540539ZM0 10C0 4.47715 4.47715 0 10 0C15.5228 0 20 4.47715 20 10C20 15.5228 15.5228 20 10 20C4.47715 20 0 15.5228 0 10ZM13.3688 5.8012C13.8965 5.27347 14.7521 5.27347 15.2799 5.8012C15.8076 6.32894 15.8076 7.18457 15.2799 7.71231L8.79339 14.1988C8.26565 14.7265 7.41002 14.7265 6.88229 14.1988L4.72012 12.0366C4.19239 11.5089 4.19239 10.6533 4.72012 10.1255C5.24786 9.59779 6.10349 9.59779 6.63122 10.1255L7.83784 11.3321L13.3688 5.8012ZM14.8977 6.18343C14.581 5.86679 14.0676 5.86679 13.751 6.18343L7.83784 12.0966L6.24901 10.5078C5.93236 10.1911 5.41899 10.1911 5.10234 10.5078C4.7857 10.8244 4.7857 11.3378 5.10234 11.6544L7.26451 13.8166C7.58115 14.1332 8.09453 14.1332 8.41117 13.8166L14.8977 7.33009C15.2143 7.01344 15.2143 6.50007 14.8977 6.18343Z" fill="#0074F8"/>
<defs>
<clipPath id="clip0_5541_50569">
<rect width="52" height="43" fill="white" transform="translate(0 3.99951)"/>
</clipPath>
</defs>
</svg>
