<svg width="52" height="52" viewBox="0 0 52 52" fill="none" xmlns="http://www.w3.org/2000/svg">
<g clip-path="url(#clip0_5219_29862)">
<path d="M27.4353 46.8983L0.461057 31.2451C0.255068 31.1256 0.106267 30.9016 0.0388072 30.5817C-0.123874 29.8221 0.233136 28.8001 0.926059 28.0419L27.9003 43.6951C27.2074 44.4536 26.8507 45.4754 27.0131 46.235C27.0806 46.5552 27.2294 46.7789 27.4353 46.8983Z" fill="#B95D14"/>
<path d="M50.8835 33.9027L50.5889 34.0751L47.0588 36.108L39.4897 40.4711L35.1558 42.9707L28.557 46.7752C27.7949 47.2121 27.1728 46.9981 27.0123 46.2344C26.9291 45.8449 26.9826 45.3872 27.1492 44.9295C27.3041 44.4957 27.5628 44.0646 27.8993 43.6962L42.3827 28.4191L44.5139 26.1751L48.2198 22.2666C49.8419 20.5545 49.6128 17.8736 47.8536 16.444L48.5351 16.9166C50.3777 18.2037 50.6456 20.8251 49.0976 22.4568L48.2017 23.4018L45.1985 26.5701L43.0703 28.8142L42.24 29.691L32.4266 40.0403L31.5963 40.9171L28.2597 44.4361C27.9709 44.7513 27.8696 45.0928 27.8727 45.3487C27.8727 45.408 27.8785 45.4645 27.8904 45.5122C27.9471 45.7767 28.1494 45.9757 28.5542 45.744L34.26 42.4537L47.1809 35.0055L50.467 33.1121C50.4759 33.1063 50.4879 33.1002 50.4967 33.0944C51.598 32.4346 51.7677 30.9842 51.0056 30.0805L51.3002 30.3569C52.3867 31.3792 52.1783 33.1567 50.8835 33.9027Z" fill="#E97D35"/>
<path d="M44.5139 26.176L42.3827 28.4198L44.5109 26.173L44.5139 26.176Z" fill="#DF7E30"/>
<path d="M50.4965 33.0958C50.4876 33.1016 50.4756 33.1077 50.4668 33.1135L47.1807 35.0069L34.2597 42.4551L28.5539 45.7454C28.1492 45.9772 27.9468 45.7781 27.8901 45.5137C27.8782 45.466 27.8724 45.4097 27.8724 45.3501C27.8693 45.0945 27.9707 44.7527 28.2594 44.4375L31.596 40.9185L32.4263 40.0417L42.2397 29.6924L43.07 28.8156L45.1982 26.5715L50.4726 29.6328C50.5412 29.6744 50.6067 29.716 50.6691 29.7637L50.9995 30.0728C51.0026 30.0758 51.0053 30.0786 51.0053 30.0816C51.7674 30.9851 51.5978 32.4358 50.4965 33.0955V33.0958Z" fill="#B95D14"/>
<path d="M44.5139 26.176L42.3827 28.4198L44.5109 26.173L44.5139 26.176Z" fill="#B95D14"/>
<path d="M48.2195 22.2666L44.5136 26.1751L44.5105 26.1721L42.3824 28.4189L27.899 43.696L3.02487 29.2602L0.926392 28.0416L22.5416 5.24478C23.8156 3.90139 25.8455 3.61004 27.4468 4.54037L47.3267 16.0756L47.8536 16.444C49.6125 17.8736 49.8418 20.5546 48.2197 22.2666H48.2195Z" fill="#D06D2D"/>
<path d="M44.5139 26.176L42.3827 28.4198L44.5109 26.173L44.5139 26.176Z" fill="#CF7122"/>
<path d="M42.8252 7.48267L42.5429 6.8739C42.9393 7.72911 42.7178 8.83686 41.8547 9.75971L37.3298 14.5971L37.6122 15.2059L42.137 10.3685C43.0001 9.44563 43.2216 8.33788 42.8252 7.48267Z" fill="#B95D14"/>
<path d="M37.3296 14.5968C36.7397 15.2274 35.7386 15.4378 35.0943 15.0664L32.4889 13.5641C32.2912 13.4502 32.1502 13.2941 32.0667 13.1145L32.349 13.7233C32.4323 13.9029 32.5733 14.059 32.771 14.1729L35.3764 15.6749C36.0204 16.0463 37.0218 15.8359 37.6117 15.2053L37.3294 14.5965L37.3296 14.5968Z" fill="#B95D14"/>
<path d="M41.6467 5.91814C43.0092 6.70377 43.1025 8.42417 41.8546 9.75813L37.3298 14.5955C36.7399 15.2262 35.7385 15.4366 35.0945 15.0651L32.4891 13.5632C31.8467 13.1928 31.8028 12.38 32.3927 11.7494L36.9176 6.91196C38.1654 5.578 40.2842 5.13279 41.647 5.91842L41.6467 5.91814Z" fill="#E97D35"/>
<path d="M40.4628 6.7511L40.7468 7.2329C40.9086 7.50734 40.8581 7.88907 40.5838 8.20897C40.2132 8.64143 39.575 8.79639 39.1569 8.55549C39.0481 8.49284 38.9651 8.40968 38.9081 8.31321L38.6241 7.83141C38.6811 7.92788 38.7641 8.01104 38.8729 8.07369C39.291 8.31459 39.9292 8.15963 40.2998 7.72717C40.5741 7.40727 40.6243 7.02554 40.4628 6.7511Z" fill="#B6C5D7"/>
<path d="M40.214 6.50916C40.6321 6.75034 40.6704 7.29507 40.2998 7.7278C39.9291 8.16026 39.2909 8.31522 38.8728 8.07432C38.4547 7.83342 38.4164 7.28814 38.787 6.85568C39.1577 6.42323 39.7959 6.26826 40.214 6.50916Z" fill="#E2ECF3"/>
<path d="M31.5941 33.1897C31.5927 33.1775 31.591 33.1654 31.5891 33.1532C31.5877 33.1454 31.5874 33.1374 31.5857 33.1299C31.5799 33.1021 31.5727 33.075 31.5635 33.0484C31.5635 33.0478 31.563 33.0473 31.563 33.0467C31.5549 33.0229 31.5455 32.9993 31.5346 32.9763C31.528 32.9624 31.521 32.9486 31.5135 32.935L31.4222 32.7706C31.4419 32.8064 31.4583 32.8438 31.4716 32.8823C31.4716 32.8829 31.4722 32.8834 31.4722 32.884C31.473 32.8867 31.4733 32.8898 31.4741 32.8926C31.4225 32.7326 31.3142 32.594 31.1496 32.4989C30.7068 32.2436 30.0244 32.4022 29.6269 32.8563L25.8486 37.1703C25.5562 37.5041 25.5021 37.9052 25.6712 38.1954C25.669 38.1913 25.6651 38.1882 25.6628 38.1841L25.7542 38.3484C25.8141 38.4566 25.9046 38.5494 26.0249 38.619C26.0773 38.6492 26.1331 38.6725 26.1914 38.6914C26.2106 38.6975 26.2306 38.7008 26.2503 38.7058C26.2903 38.716 26.3305 38.7252 26.3724 38.7304C26.3963 38.7335 26.4205 38.7343 26.4449 38.7357C26.484 38.7379 26.5232 38.739 26.5629 38.7374C26.5887 38.7363 26.6142 38.7341 26.64 38.7313C26.6586 38.7293 26.677 38.7299 26.6956 38.7268C26.7231 38.7227 26.7505 38.7158 26.778 38.7099C26.7908 38.7072 26.8036 38.7052 26.8163 38.7019C26.823 38.7002 26.8297 38.6994 26.8363 38.6977C26.8741 38.6878 26.9118 38.6764 26.949 38.6634C26.9649 38.6578 26.9801 38.6509 26.9959 38.6448C27.0037 38.6417 27.0115 38.639 27.0193 38.6356C27.0287 38.6318 27.0384 38.6284 27.0476 38.6243C27.0776 38.6112 27.1075 38.5968 27.1367 38.5816C27.1572 38.5711 27.1772 38.5591 27.1972 38.5475C27.2011 38.5453 27.2053 38.5431 27.2092 38.5408C27.2128 38.5386 27.2169 38.5367 27.2205 38.5345C27.2477 38.5178 27.2747 38.5004 27.301 38.4818C27.328 38.4629 27.3543 38.443 27.3802 38.4222C27.3815 38.4211 27.3829 38.4197 27.3846 38.4183C27.3868 38.4164 27.3888 38.4144 27.3913 38.4125C27.4146 38.3931 27.4379 38.3731 27.4601 38.3521C27.489 38.3249 27.5167 38.2961 27.5431 38.2664C27.5448 38.2645 27.5465 38.2628 27.5478 38.2608L31.3262 33.9468C31.3592 33.9088 31.3895 33.8703 31.4167 33.8309C31.418 33.829 31.4189 33.8271 31.42 33.8251C31.4289 33.8121 31.4355 33.7991 31.4439 33.7858C31.4616 33.7575 31.4791 33.7292 31.4936 33.7007C31.5019 33.6843 31.5085 33.6679 31.5158 33.6516C31.5274 33.6258 31.5385 33.6 31.5477 33.5742C31.5538 33.5568 31.5585 33.5393 31.5638 33.5219C31.571 33.4969 31.5777 33.4722 31.5827 33.4476C31.5863 33.4295 31.5888 33.4121 31.5913 33.3943C31.5929 33.3813 31.5965 33.3683 31.5977 33.3555C31.5985 33.3453 31.5977 33.3356 31.5979 33.3256C31.599 33.3034 31.5993 33.2818 31.5988 33.2602C31.5985 33.2488 31.5999 33.2371 31.599 33.2258C31.5982 33.2136 31.5954 33.2017 31.5941 33.1897Z" fill="#E2ECF3"/>
</g>
<defs>
<clipPath id="clip0_5219_29862">
<rect width="52" height="43" fill="white" transform="translate(0 3.99963)"/>
</clipPath>
</defs>
</svg>
