<svg xmlns:xlink="http://www.w3.org/1999/xlink" xmlns="http://www.w3.org/2000/svg" width="25" height="32" fill="none" viewBox="0 0 28 28" class="text-text-1 asuikit-snftl1"><path fill="#000" fill-rule="evenodd" d="M28 14c0 7.732-6.268 14-14 14S0 21.732 0 14C0 9.42 2.2 5.354 5.6 2.8L2.8 0H14c7.732 0 14 6.268 14 14m-16.975 8.75a7.875 7.875 0 0 1-7.832-8.707 7.875 7.875 0 0 1 8.663 8.663 8 8 0 0 1-.831.044m5.95 0a7.875 7.875 0 0 0 7.832-8.707 7.875 7.875 0 0 0-8.663 8.663q.41.044.831.044" clip-rule="evenodd"></path></svg>