<svg width="24" height="24" viewBox="0 0 24 24" fill="none" xmlns="http://www.w3.org/2000/svg">
<path d="M13.5085 13.5198L12.5237 16.1747C12.4946 16.2483 12.4946 16.3301 12.5237 16.4037L14.2148 20.9733L16.1719 19.8605L13.8243 13.5198C13.7702 13.3725 13.5625 13.3725 13.5085 13.5198Z" fill="#28A0F0"/>
<path d="M15.4778 9.05256C15.4238 8.90531 15.216 8.90531 15.162 9.05256L14.1773 11.7075C14.1481 11.7812 14.1481 11.863 14.1773 11.9366L16.9487 19.4188L18.9058 18.306L15.4778 9.05256Z" fill="#28A0F0"/>
<path d="M12 3.23952C12.0498 3.23952 12.0956 3.25179 12.1413 3.27634L19.6039 7.51851C19.6912 7.5676 19.7452 7.6576 19.7452 7.75578V16.2401C19.7452 16.3383 19.6912 16.4283 19.6039 16.4774L12.1413 20.7237C12.0997 20.7482 12.0498 20.7605 12 20.7605C11.9502 20.7605 11.9044 20.7482 11.8587 20.7237L4.40028 16.4815C4.31302 16.4324 4.259 16.3424 4.259 16.2443V7.75578C4.259 7.6576 4.31302 7.5676 4.40028 7.51851L11.8629 3.27634C11.9044 3.25179 11.9543 3.23952 12 3.23952ZM12 2C11.7341 2 11.4681 2.06954 11.2313 2.20454L3.7687 6.44672C3.29501 6.71671 3 7.21579 3 7.75578V16.2401C3 16.7801 3.29501 17.2833 3.7687 17.5533L11.2313 21.7954C11.4681 21.9304 11.7341 22 12 22C12.2659 22 12.5319 21.9304 12.7687 21.7954L20.2313 17.5533C20.7091 17.2833 21 16.7842 21 16.2401V7.75578C21 7.21579 20.705 6.71262 20.2313 6.44263L12.7729 2.20454C12.5319 2.06954 12.2659 2 12 2Z" fill="#28A0F0"/>
<path d="M7.06843 19.4269L7.75402 17.5779L9.13352 18.7069L7.84543 19.8687L7.06843 19.4269Z" fill="#28A0F0"/>
<path d="M11.3724 7.1503H9.4818C9.34053 7.1503 9.21168 7.23621 9.16599 7.36711L5.11059 18.3141L7.06765 19.4268L11.5344 7.37121C11.5718 7.26484 11.4928 7.1503 11.3724 7.1503Z" fill="#28A0F0"/>
<path d="M14.6836 7.1503H12.7931C12.6518 7.1503 12.5229 7.23621 12.4772 7.36711L7.84429 19.8686L9.80133 20.9814L14.8415 7.37529C14.883 7.26484 14.8 7.1503 14.6836 7.1503Z" fill="#28A0F0"/>
</svg>
