<svg xmlns:xlink="http://www.w3.org/1999/xlink" xmlns="http://www.w3.org/2000/svg" width="32" height="32" viewBox="0 0 32 32" fill="none">
	<rect width="32" height="32" rx="8" fill="white"/>
	<g clip-path="url(#clip0_377_7052)">
		<path d="M32 16C32 7.16344 24.8366 0 16 0C7.16344 0 0 7.16344 0 16C0 24.8366 7.16344 32 16 32C24.8366 32 32 24.8366 32 16Z" fill="white"/>
		<path d="M12.4726 8.16064H10.3626C10.2168 8.16064 10.0868 8.25186 10.0368 8.38884L4.49038 23.6076C4.44914 23.7209 4.53289 23.8406 4.65327 23.8406H6.76338C6.90911 23.8406 7.03918 23.7494 7.08916 23.6126L12.6356 8.39368C12.6769 8.28045 12.5931 8.16064 12.4726 8.16064ZM15.0393 14.5374C14.9838 14.3853 14.769 14.3853 14.7134 14.5374L13.6195 17.5395C13.5915 17.6163 13.5915 17.7006 13.6195 17.7774L15.7461 23.6125C15.7959 23.7494 15.9261 23.8405 16.0718 23.8405H18.182C18.3023 23.8405 18.3861 23.7207 18.3449 23.6075L15.0393 14.5374ZM20.4185 17.4758C20.4739 17.6279 20.6887 17.6279 20.7442 17.4758L24.054 8.39368C24.0953 8.28045 24.0115 8.16064 23.8911 8.16064H21.7811C21.6353 8.16064 21.5052 8.25174 21.4553 8.38884L19.3244 14.2358C19.2964 14.3126 19.2964 14.3967 19.3244 14.4735L20.4185 17.4758ZM16.2579 8.38723C16.2085 8.25116 16.0793 8.16064 15.9347 8.16064H13.8174C13.6718 8.16064 13.5418 8.25174 13.4917 8.38872L7.94545 23.6076C7.9042 23.7209 7.98795 23.8406 8.10834 23.8406H10.2186C10.3643 23.8406 10.4944 23.7495 10.5444 23.6126L14.7908 11.9602C14.8187 11.8837 14.9267 11.8837 14.9545 11.9602L19.201 23.6126C19.2509 23.7495 19.3811 23.8406 19.5268 23.8406H21.6371C21.7574 23.8406 21.8412 23.7208 21.7999 23.6077L16.2579 8.38723ZM27.3462 8.16064H25.2358C25.0902 8.16064 24.9601 8.25174 24.9102 8.38872L21.0518 18.9759C21.0238 19.0527 21.0238 19.137 21.0518 19.2138L22.146 22.2161C22.2014 22.3681 22.4163 22.3681 22.4716 22.2161L26.2911 11.7357L27.5091 8.39357C27.5503 8.28045 27.4666 8.16064 27.3462 8.16064Z" fill="#EF8220"/>
	</g>
	<defs>
		<clipPath id="clip0_377_7052">
			<rect width="32" height="32" fill="white"/>
		</clipPath>
	</defs>
</svg>