<svg xmlns:xlink="http://www.w3.org/1999/xlink" xmlns="http://www.w3.org/2000/svg" width="32" height="32" viewBox="0 0 32 32" fill="none">
	<rect width="32" height="32" rx="8" fill="#2C374B"/>
	<g clip-path="url(#clip0_377_7057)">
		<path d="M16 32C24.8366 32 32 24.8366 32 16C32 7.16344 24.8366 0 16 0C7.16344 0 0 7.16344 0 16C0 24.8366 7.16344 32 16 32Z" fill="#2C374B"/>
		<path fill-rule="evenodd" clip-rule="evenodd" d="M24.6635 10.3407C24.5082 10.192 17.6029 6.17176 16.8055 5.76635C16.4542 5.58393 15.8055 5.53663 15.4339 5.665C15.0015 5.8069 7.6907 10.0704 7.39341 10.3474C7.24476 10.4893 7.06233 10.7258 6.98801 10.8744C6.85963 11.138 6.85287 11.3204 6.8326 16.192L6.81909 21.2325L7.75151 21.7798C8.26502 22.077 8.72449 22.3271 8.75827 22.3406C8.83259 22.3609 15.4677 11.7934 15.4677 11.6514C15.4677 11.5501 13.9677 11.5704 13.4339 11.6785C12.8799 11.8001 12.3934 12.0433 12.1163 12.3407C12.0015 12.4623 11.0758 13.8542 10.0623 15.4352C9.04881 17.0164 8.19746 18.3338 8.16367 18.3677C8.12989 18.4082 8.10286 16.942 8.10286 14.9352V11.4352L8.29205 11.2663C8.61637 10.969 15.7987 6.85419 15.988 6.85419C16.1704 6.85419 16.2718 6.90824 17.9339 7.8677C18.4947 8.19202 19.9947 9.05688 21.2785 9.7866C22.5623 10.5231 23.6771 11.1988 23.7649 11.2866L23.9136 11.4556V18.7254L20.3478 13.2503C20.1854 12.9853 20.0159 12.7223 19.9245 12.6002L19.9115 12.5805L19.9101 12.5814C19.8843 12.5485 19.8666 12.5298 19.8595 12.5298C19.8326 12.5366 19.6501 12.8338 18.8326 14.2122C18.7312 14.3812 18.5825 14.638 18.5082 14.7798L18.3663 15.0366L18.3675 15.0388L18.3639 15.041L18.4664 15.2098L18.5419 15.3406C18.5659 15.3817 18.5907 15.4201 18.615 15.4544L18.8515 15.8436C18.8807 15.9077 18.921 15.9801 18.9677 16.0501C19.0758 16.2122 19.2177 16.442 19.2853 16.5636C19.3023 16.5943 19.3207 16.6221 19.3392 16.646L22.2618 21.4556L21.9136 21.6582C21.7154 21.7704 21.6207 21.8205 21.5607 21.8233L17.905 16.1401L17.8122 15.9893L17.4811 16.5298L17.4562 16.5712L16.0288 18.8915L16.0249 18.8944L18.8802 23.3829C18.5173 23.6674 16.1048 25.3219 15.9488 25.3219C15.7731 25.3219 12.6163 23.1514 12.6569 23.077C12.6713 23.0482 13.645 21.3962 14.8277 19.3899L14.8295 19.3869C15.8657 17.6288 17.0619 15.5993 17.9136 14.1514C18.9271 12.4352 19.3461 11.6718 19.2785 11.6514C19.2312 11.6312 18.5555 11.6245 17.7853 11.638L16.3799 11.6582L13.1366 17.0028C11.9425 18.9749 10.8635 20.7532 10.2562 21.7538L10.2549 21.7562C9.95588 22.2489 9.7715 22.5528 9.74475 22.5974L9.5961 22.8406L12.1096 24.2865C13.4947 25.0838 14.8123 25.8338 15.0488 25.9622C15.5421 26.2257 16.1096 26.3136 16.5082 26.1784C16.7718 26.0974 24.1974 21.8204 24.569 21.5433C24.6839 21.4554 24.8798 21.192 24.9946 20.9554L25.1974 20.5366L25.1839 15.8406L25.1635 11.1447L25.0014 10.8271C24.9136 10.6515 24.7582 10.4285 24.6635 10.3407ZM23.9078 18.8185L23.9136 18.8271V18.8147L23.9078 18.8185Z" fill="white"/>
		<path d="M24.0504 18.918L19.8637 12.4966L18.2957 15.0132L22.344 21.6942L24.1186 20.841L24.0504 18.918Z" fill="#24A2EE"/>
		<path d="M22.0103 22.4215L17.8236 16L16.0222 18.8729L19.3827 24.2527L21.5314 23.3803L22.0103 22.4215Z" fill="#24A2EE"/>
		<path fill-rule="evenodd" clip-rule="evenodd" d="M8.17447 11.4943L16.0002 6.98563L23.8261 11.4943V20.506L16.0002 25.0146L10.2554 21.7049L9.49 22.9544L15.7853 26.5811C15.9183 26.6578 16.0822 26.6578 16.2153 26.5811L25.0751 21.4769C25.2086 21.4 25.2909 21.2577 25.2909 21.1036V10.8967C25.2909 10.7426 25.2086 10.6003 25.0751 10.5234L16.2153 5.41909C16.0822 5.3424 15.9183 5.3424 15.7853 5.41909L6.92547 10.5234C6.79198 10.6003 6.70972 10.7426 6.70972 10.8967V21.1036C6.70972 21.2577 6.79198 21.4 6.92547 21.4769L8.69635 22.4971L9.48524 21.2611L8.17447 20.506V11.4943Z" fill="#98BCDC"/>
		<path d="M19.4037 11.5938L16.3807 11.6368L9.48877 22.9593L11.9203 24.3671L19.4037 11.5938Z" fill="white"/>
		<path d="M11.8968 12.6267C12.5872 11.4975 14.5639 11.5021 15.4661 11.6457L8.69348 22.496C8.46349 22.3635 7.89312 22.0355 7.45153 21.7824C6.86805 21.448 6.77167 21.4391 6.70972 21.1295V20.5289C8.15113 18.3653 11.2066 13.756 11.8968 12.6267Z" fill="white"/>
	</g>
	<defs>
		<clipPath id="clip0_377_7057">
			<rect width="32" height="32" fill="white"/>
		</clipPath>
	</defs>
</svg>