<svg xmlns:xlink="http://www.w3.org/1999/xlink" xmlns="http://www.w3.org/2000/svg" width="32" height="32" viewBox="0 0 32 32" fill="none">
  <g clip-path="url(#clip0_1798_12745)">
    <rect width="32" height="32" fill="#242828"/>
    <path d="M29.9644 15.0527C29.4403 7.33642 22.7623 1.5086 15.0496 2.03276C11.2075 2.29461 7.83351 4.08458 5.47869 6.76605L5.47169 6.76138C5.45489 6.78285 5.44042 6.80432 5.42595 6.82579C3.08747 9.52406 1.77146 13.1092 2.0328 16.9528C2.05706 17.3197 2.1 17.6791 2.15273 18.0357C2.15273 18.0529 2.1574 18.067 2.15973 18.0838C2.19566 18.3185 2.23673 18.5538 2.282 18.7839C2.32491 18.9966 2.37283 19.2082 2.42573 19.4187C4.04321 25.8672 10.0833 30.4344 16.9499 29.9672C24.6626 29.4425 30.4917 22.7638 29.9672 15.048L29.9644 15.0527ZM26.917 15.2609C26.9819 16.2102 26.9217 17.14 26.7518 18.0361C26.7518 18.0315 26.7472 18.0268 26.7472 18.0217C25.7308 15.5414 23.7232 13.7491 21.9596 12.7591C22.3166 8.55603 20.8909 6.78285 19.2763 6.49534C18.9634 6.43655 18.6418 6.44236 18.3313 6.51239C18.0207 6.58243 17.7278 6.71522 17.4704 6.90261C17.213 7.09 16.9967 7.32803 16.8346 7.60208C16.6726 7.87614 16.5682 8.18044 16.528 8.49629C16.4887 8.80097 16.5099 9.11042 16.5903 9.40692C16.6707 9.70342 16.8088 9.98114 16.9966 10.2242C17.1845 10.4672 17.4185 10.6708 17.6851 10.8233C17.9518 10.9758 18.2459 11.0742 18.5506 11.1129C18.6631 11.1273 18.7732 11.132 18.881 11.1297C18.8888 11.2797 18.8929 11.4299 18.8931 11.5801C17.4002 11.2114 16.0058 11.1367 14.7337 11.252C14.2553 11.2834 13.7792 11.3434 13.308 11.4317C13.4667 10.0128 14.0005 8.41694 15.0333 7.2524C16.032 6.12381 17.5178 5.47923 19.1372 5.64446C19.4443 5.67573 19.7723 5.75227 20.0668 5.85076C20.0813 5.85543 20.0957 5.86009 20.1079 5.86243C23.8599 7.39149 26.6226 10.9546 26.9147 15.2609H26.917ZM17.1585 17.3986C17.1585 17.3986 17.1585 17.4009 17.1562 17.4032C16.8022 17.912 16.4011 18.3863 15.9582 18.8198C15.2875 18.1111 14.7196 17.3117 14.2712 16.445C14.2498 16.3993 14.226 16.3587 14.204 16.3129V16.3082C13.9413 15.7465 13.7312 15.1617 13.5763 14.5612C14.5704 14.3264 15.5457 14.2401 16.4781 14.2858L16.6265 14.2928H16.6312C17.2159 14.3409 17.8244 14.4487 18.4544 14.6214C18.162 15.6049 17.7261 16.5399 17.1608 17.3962L17.1585 17.3986ZM12.3761 5.67339L12.3691 5.68273C10.7278 7.8013 10.1813 10.4347 10.2056 12.4571C6.38636 14.2494 5.56689 16.3703 6.12269 17.9134C6.13669 17.9568 6.15396 17.9974 6.17076 18.0385C6.41022 18.6106 6.86698 19.0642 7.44067 19.2996C8.01436 19.535 8.65804 19.533 9.23025 19.294C9.80225 19.0545 10.2558 18.5977 10.4912 18.0239C10.7266 17.4501 10.7246 16.8063 10.4856 16.234C10.4421 16.1324 10.3917 16.0338 10.3349 15.939C10.4548 15.8597 10.5841 15.7813 10.7231 15.6996C11.1492 17.1783 11.7797 18.4268 12.5151 19.4714C12.7811 19.8667 13.0686 20.2476 13.3822 20.6145C12.0741 21.1872 10.4259 21.5228 8.89938 21.211C7.42377 20.9094 6.12269 19.9461 5.45442 18.46C5.3264 18.1685 5.23003 17.8642 5.16695 17.5521C5.12755 17.2841 5.09797 17.0148 5.07829 16.7447C4.73762 11.729 7.84797 7.26454 12.3761 5.67339ZM16.7413 26.9216C13.7635 27.1251 10.9793 26.1095 8.87558 24.3022C11.5305 24.6644 14.0845 23.8206 15.8243 22.7881C19.2861 25.2012 21.5335 24.8511 22.5924 23.5979C22.7999 23.356 22.9557 23.0743 23.0504 22.77C23.145 22.4657 23.1765 22.1453 23.1428 21.8284C23.1092 21.5115 23.0111 21.2048 22.8547 20.9272C22.6982 20.6496 22.4867 20.4069 22.2331 20.214C21.9888 20.0277 21.7102 19.8914 21.4132 19.8129C21.1162 19.7344 20.8067 19.7152 20.5023 19.7563C20.1978 19.7975 19.9045 19.8983 19.6391 20.0529C19.3736 20.2075 19.1412 20.4129 18.9552 20.6574C18.8885 20.7461 18.8283 20.8422 18.7755 20.9379C18.6486 20.873 18.5142 20.8012 18.3779 20.7223C19.3533 19.7158 20.1527 18.5525 20.7425 17.2809C20.9537 16.8506 21.1393 16.4081 21.2983 15.9559C22.4487 16.8044 23.565 18.0623 24.0587 19.5405C24.5356 20.9687 24.3532 22.579 23.3998 23.8999C23.2114 24.1562 22.9961 24.3915 22.7576 24.6019L22.7483 24.6112C21.0254 25.9685 18.9324 26.7731 16.7441 26.9193L16.7413 26.9216Z" fill="url(#paint0_linear_1798_12745)"/>
    <path style="mix-blend-mode:overlay" opacity="0.9" d="M18.1465 7.03635C17.8729 6.99093 17.5923 6.98805 17.3175 7.02785C18.7134 7.691 19.729 9.53973 19.1952 13.1887C19.0184 14.3755 18.6196 15.5287 18.0147 16.6022C17.4934 17.5819 16.815 18.4915 16 19.3037C16.3864 19.5578 16.7907 19.7904 17.2106 20C18.2269 19.0835 19.0598 18.0241 19.6745 16.8662C20.2809 15.7932 20.6798 14.6397 20.855 13.4527C21.4919 9.10953 19.9293 7.31564 18.147 7.03805L18.1465 7.03635Z" fill="url(#paint1_radial_1798_12745)"/>
    <g style="mix-blend-mode:overlay" opacity="0.8">
      <path d="M19.8332 13.0226C20.4488 9.45743 19.2782 7.64864 17.6707 7C17.6074 7.00623 17.5475 7.01704 17.4837 7.02784C19.0569 7.69975 20.1894 9.50438 19.5829 13.0226C19.3792 14.1827 18.9198 15.3099 18.223 16.3593C17.6442 17.2831 16.8961 18.143 16 18.9148C16.0515 18.9447 16.1008 18.9726 16.1523 19C17.0905 18.2056 17.8718 17.3163 18.4728 16.3589C19.1715 15.31 19.6312 14.183 19.8332 13.0226Z" fill="#242828"/>
    </g>
    <path style="mix-blend-mode:overlay" opacity="0.5" d="M15.4021 21.3788C15.2818 21.2569 15.168 21.1284 15.0525 21C13.178 22.0507 10.5808 22.7096 8 21.9039C8.4203 22.6273 8.89286 23.2929 9.41078 23.8912C11.9283 24.3526 14.3503 23.2775 16 21.9621C15.7972 21.7718 15.5972 21.5763 15.3999 21.3758L15.4021 21.3788Z" fill="url(#paint2_radial_1798_12745)"/>
    <path style="mix-blend-mode:overlay" opacity="0.6" d="M15.9995 21.264C15.937 21.1757 15.8719 21.0883 15.8118 21C13.7263 22.3928 10.8431 23.2282 8 22.0405C8.07038 22.1958 8.14076 22.3552 8.21065 22.5065C11.0591 23.614 13.9291 22.7083 15.9995 21.264Z" fill="url(#paint3_linear_1798_12745)"/>
    <path style="mix-blend-mode:overlay" opacity="0.9" d="M6.1465 17.4372C6.15949 17.472 6.17552 17.5052 6.19111 17.5381C6.27339 17.709 6.37992 17.862 6.50898 18C6.47346 16.7659 7.65183 15.2577 11.1068 13.9964C12.2325 13.5877 13.4276 13.3438 14.6441 13.2744C15.7409 13.189 16.8461 13.2414 17.9259 13.4298C17.9817 13.0223 18.0038 12.642 17.9995 12.306C16.7383 12.0289 15.4327 11.9391 14.1374 12.0403C12.9208 12.1098 11.7255 12.3538 10.5997 12.7622C6.48472 14.2644 5.59738 16.1138 6.14693 17.4391V17.4372H6.1465Z" fill="url(#paint4_radial_1798_12745)"/>
    <g style="mix-blend-mode:overlay" opacity="0.8">
      <path d="M11.4304 13.7844C8.10181 15.0821 6.96614 16.6328 7.00077 17.902C7.03081 17.9359 7.06293 17.9681 7.09506 18C7.09255 16.7405 8.24075 15.2158 11.5247 13.9341C12.6092 13.5138 13.7606 13.263 14.9326 13.1916C15.9514 13.1076 16.9778 13.1547 17.9829 13.3315C17.9896 13.2877 17.9953 13.2438 18 13.1997C16.9596 13.0071 15.895 12.9534 14.8383 13.0403C13.6663 13.1119 12.5149 13.3628 11.4304 13.7829V13.7844Z" fill="#242828"/>
    </g>
    <path style="mix-blend-mode:overlay" opacity="0.4" d="M21.0873 14.5298C21.0646 14.6377 21.0323 14.7421 21 14.8485C23.0657 15.7345 25.2743 17.1777 26.2638 19C26.5909 18.544 26.8374 18.0711 27 17.588C25.7691 15.8962 23.331 14.6749 21.1893 14C21.1632 14.1719 21.1309 14.3467 21.0901 14.5298H21.0873Z" fill="url(#paint5_radial_1798_12745)"/>
    <path style="mix-blend-mode:overlay" opacity="0.5" d="M21.047 15C21.0304 15.0598 21.0165 15.1219 21 15.1817C22.9264 16.2194 24.9728 17.8964 25.8522 20C25.9039 19.9197 25.9536 19.8387 26 19.7584C25.0688 17.6695 22.992 16.0173 21.0438 15H21.047Z" fill="url(#paint6_linear_1798_12745)"/>
    <path style="mix-blend-mode:overlay" opacity="0.9" d="M22.602 23.1772C22.7711 23.0054 22.9057 22.8103 23 22.6001C21.729 23.27 19.5353 23.1269 16.3971 21.0658C15.3769 20.3938 14.4927 19.5808 13.7804 18.6599C13.1139 17.8422 12.5865 16.9465 12.2145 16C11.7604 16.1675 11.351 16.3491 11 16.5268C11.3752 17.6622 11.9684 18.7354 12.7551 19.7016C13.4572 20.6058 14.3324 21.4235 15.3718 22.1075C19.1073 24.5618 21.5066 24.2972 22.5993 23.1768H22.602V23.1772Z" fill="url(#paint7_radial_1798_12745)"/>
    <g style="mix-blend-mode:overlay" opacity="0.8">
      <path d="M16.8594 21.1105C19.7546 23.1684 21.7816 23.3117 22.9545 22.6422C22.9718 22.6002 22.987 22.5578 23 22.5174C21.8203 23.1566 19.8106 22.989 16.9541 20.9593C16.0123 20.2881 15.196 19.4761 14.5383 18.5562C13.9457 17.7685 13.4724 16.9084 13.1317 16C13.0863 16.0181 13.0434 16.0342 13 16.0522C13.3434 16.9978 13.8301 17.8925 14.4453 18.7094C15.0934 19.6125 15.9015 20.4292 16.8611 21.1124L16.859 21.1105H16.8594Z" fill="#242828"/>
    </g>
    <path style="mix-blend-mode:overlay" opacity="0.3" d="M11.6732 12.6524C11.8103 12.5862 11.9474 12.5257 12.0867 12.4652C12.3435 10.1329 13.2091 7.24008 15 5C14.3297 5.1128 13.6704 5.29738 13.0317 5.55784C11.4905 7.88509 10.9779 10.7779 11.0007 13C11.2141 12.8821 11.4371 12.7657 11.671 12.6529L11.6732 12.6524Z" fill="url(#paint8_radial_1798_12745)"/>
    <path style="mix-blend-mode:overlay" opacity="0.4" d="M12 13C12.087 12.9694 12.1707 12.9356 12.2571 12.905C12.6143 10.4209 13.7363 7.35474 16 5C15.8717 5.0142 15.7429 5.03112 15.6146 5.04804C13.3928 7.43609 12.3186 10.5137 12.0005 12.9973V13H12Z" fill="url(#paint9_linear_1798_12745)"/>
    <path style="mix-blend-mode:multiply" opacity="0.4" d="M14.6713 2.03597C11.2087 2.31523 8.16961 4.22766 6.04751 7.09256L6 7.15639C6.41206 7.6431 7.76344 8.60056 8.30963 9C9.398 7.60936 10.7556 6.554 12.265 5.92516C12.3709 5.76109 12.4828 5.60002 12.5997 5.44393C14.0242 3.53649 15.9693 2.53016 18.2272 2.53016C18.4778 2.53016 18.9895 2.57903 19 2.57903C17.595 2.09969 16.1302 1.91573 14.6717 2.03547L14.6713 2.03597Z" fill="url(#paint10_linear_1798_12745)"/>
    <path style="mix-blend-mode:multiply" opacity="0.4" d="M15.7981 26.7974C12.9279 27.0089 10.2444 25.9531 8.21671 24.0748C8.02628 24.048 7.83679 24.0138 7.64861 23.9725C5.3969 23.4766 3.56801 22.0219 2.36254 19.7676C2.2298 19.5185 2.1088 19.2623 2 19C3.55901 25.7037 9.3808 30.452 15.9969 29.9658C16.0271 29.2312 15.826 27.5252 15.7959 26.7974H15.7981Z" fill="url(#paint11_linear_1798_12745)"/>
    <path style="mix-blend-mode:multiply" opacity="0.4" d="M29.9615 16.0065C29.4545 15.967 26.986 16.1176 26.378 16.1956C26.4537 17.0584 26.3835 17.9033 26.1832 18.7177C26.2677 18.8789 26.3495 19.0443 26.4224 19.2118C27.3104 21.2677 27.0003 23.3953 25.5296 25.368C25.3668 25.5854 25.19 25.7963 25 26C25 26 25.0082 25.9953 25.011 25.9911C28.3558 23.4759 30.3023 19.8871 29.9615 16.0086V16.0065Z" fill="url(#paint12_linear_1798_12745)"/>
    <path style="mix-blend-mode:multiply" opacity="0.5" d="M19.0746 5.77548C19.3449 5.80588 19.6341 5.88028 19.8941 5.97602C19.9065 5.98055 19.9196 5.98509 19.9299 5.98736C20.9895 6.46427 21.9642 7.14411 22.809 7.99546C22.809 7.99546 22.8131 7.99773 22.8151 8C23.2208 7.49003 24 6.9288 24 6.9288C24 6.9288 22.8069 5.5822 20.9798 5.16297C19.702 4.86943 16.8188 4.58768 15 8L15.0169 7.98185C15.1522 7.75772 15.2937 7.53903 15.4563 7.3385C16.3371 6.24143 17.6466 5.61441 19.0746 5.77548Z" fill="url(#paint13_linear_1798_12745)"/>
    <path style="mix-blend-mode:multiply" opacity="0.5" d="M22.8548 23.4822C22.6778 23.7551 22.4755 24.0056 22.2514 24.2296C22.2426 24.2395 22.2312 24.2499 22.222 24.2604C21.258 25.1068 20.1696 25.7536 19.007 26.1709C19.0048 26.1709 19.0026 26.1709 19 26.1734C19.2118 26.8775 19.2658 28 19.2658 28C19.2658 28 21.0287 27.4902 22.3531 25.8087C23.2784 24.6325 25.0524 21.7704 23.1653 18C23.1653 18 23.1679 18.0124 23.1723 18.0278C23.2894 18.2912 23.3951 18.561 23.4762 18.8393C23.9244 20.3598 23.7529 22.074 22.857 23.4798L22.8548 23.4822Z" fill="url(#paint14_linear_1798_12745)"/>
    <path style="mix-blend-mode:multiply" opacity="0.5" d="M5.88385 18.5864C5.76084 18.3402 5.66824 18.0832 5.60762 17.8196C5.60538 17.8078 5.6009 17.7951 5.59866 17.7829C5.42854 16.6926 5.4836 15.588 5.74819 14.5241V14.5178C5.09052 14.4043 4.18751 14 4.18751 14C4.18751 14 3.68609 15.5762 4.32316 17.2714C4.76907 18.4587 6.09516 20.9736 10 21C10 21 9.98881 20.9976 9.97493 20.9937C9.71079 20.9795 9.44664 20.9555 9.18698 20.909C7.7709 20.654 6.52271 19.8407 5.88116 18.5864H5.88385Z" fill="url(#paint15_linear_1798_12745)"/>
    <path style="mix-blend-mode:multiply" opacity="0.6" d="M17.7214 11.9825C17.8162 11.997 17.9091 12.0018 18 11.9994C18 11.9994 17.9374 10.498 17.7879 9.7261C17.6364 8.95661 17.414 8.44441 17.1716 8.15531C16.9961 7.94764 16.4444 7.68986 16.0163 9.27799C15.983 9.59253 16.0008 9.912 16.0686 10.2181C16.1363 10.5242 16.2527 10.811 16.4111 11.0619C16.5695 11.3129 16.7668 11.5231 16.9916 11.6806C17.2164 11.8381 17.4644 11.9397 17.7214 11.9797V11.9821V11.9825Z" fill="url(#paint16_linear_1798_12745)"/>
    <path style="mix-blend-mode:multiply" opacity="0.5" d="M10.8243 16.2567C10.7818 16.1683 10.7325 16.0825 10.677 16C10.677 16 9.48347 16.6893 8.94175 17.1487C8.40003 17.6084 8.1103 18.0243 8.01478 18.3645C7.94701 18.609 8.05435 19.2108 9.60036 18.9243C10.1579 18.7155 10.5999 18.3173 10.8293 17.8171C11.0588 17.3169 11.0568 16.7557 10.8239 16.2567H10.8243Z" fill="url(#paint17_linear_1798_12745)"/>
    <path style="mix-blend-mode:multiply" opacity="0.6" d="M18.1753 19.8082C18.1098 19.8862 18.0515 19.9708 18 20.0545C18 20.0545 19.2652 20.6386 19.983 20.8302C20.7008 21.0223 21.2477 21.0391 21.6244 20.9419C21.8958 20.8725 22.4241 20.4826 21.3739 19.4208C21.1355 19.2571 20.8636 19.1373 20.5738 19.0683C20.284 18.9992 19.982 18.9823 19.685 19.0186C19.3879 19.0548 19.1017 19.1434 18.8427 19.2793C18.5837 19.4152 18.3569 19.5958 18.1753 19.8107V19.8082Z" fill="url(#paint18_linear_1798_12745)"/>
    <path style="mix-blend-mode:multiply" opacity="0.3" d="M18.3361 16C18.0607 16.6411 17.6742 17.2241 17.2008 17.7376C17.1759 17.7642 17.1514 17.7911 17.1243 17.8193C17.1243 17.8193 17.1243 17.8208 17.1221 17.8224C16.7906 18.1559 16.4149 18.4669 16 18.7511C16.3008 18.9742 16.6238 19.1909 16.9809 19.3968C17.3865 19.6202 17.8155 19.8218 18.2644 20C19.1782 19.3402 19.9271 18.5776 20.4798 17.744C20.6775 17.4617 20.8512 17.1715 21 16.8749C20.5379 16.6377 20.0711 16.4477 19.6405 16.3189C19.216 16.1915 18.7794 16.085 18.3339 16H18.3365H18.3361Z" fill="url(#paint19_linear_1798_12745)"/>
    <path style="mix-blend-mode:multiply" opacity="0.3" d="M8.82992 23.9127C11.5691 24.2831 14.2047 23.4195 16 22.3617C15.7794 22.2088 15.5616 22.0516 15.347 21.8905C14.6642 21.3721 14.038 20.7842 13.4785 20.1364C12.1282 20.7223 10.4273 21.066 8.85207 20.7467C7.32935 20.438 5.98673 19.4514 5.29665 17.9301C5.16451 17.6315 5.06506 17.3197 5 17C5.39826 19.7726 6.80733 22.1921 8.82751 23.9122L8.82992 23.9127Z" fill="url(#paint20_linear_1798_12745)"/>
    <path style="mix-blend-mode:multiply" opacity="0.3" d="M15.9978 18.5172C15.3576 17.932 14.8156 17.2718 14.3877 16.556C14.3672 16.5182 14.344 16.4847 14.3235 16.4469V16.4431C14.0727 15.9791 13.8721 15.496 13.7243 15C13.2895 15.0891 12.8529 15.2001 12.4136 15.3427C11.926 15.5114 11.4535 15.7111 11 15.9403C11.4072 17.1617 12.0086 18.193 12.7108 19.0558C12.9647 19.3824 13.2396 19.697 13.5394 20C14.074 19.798 14.5525 19.5586 14.9339 19.311C15.3096 19.0669 15.6658 18.801 16 18.5153L15.9978 18.5172Z" fill="url(#paint21_linear_1798_12745)"/>
    <path style="mix-blend-mode:multiply" opacity="0.3" d="M12.7484 5.68037C11.4225 7.96946 10.981 10.8148 11.0006 13C11.1917 12.88 11.3846 12.7653 11.5793 12.6561C12.1997 12.3094 12.8458 12.0516 13.5069 11.887C13.635 10.3539 14.0663 8.6296 14.9006 7.37134C15.7074 6.1519 16.9077 5.45494 18.2162 5.63397C18.4639 5.66776 18.7289 5.75047 18.9672 5.85688C18.9785 5.86192 18.9902 5.86696 19 5.86949C17.758 5.19153 16.4163 4.90375 15.0782 5.02829C14.2654 5.10343 13.4873 5.32331 12.7517 5.67028C12.7499 5.6728 12.748 5.67785 12.7461 5.68037H12.7484Z" fill="url(#paint22_linear_1798_12745)"/>
    <path style="mix-blend-mode:multiply" opacity="0.3" d="M26.9892 18.4376C25.8729 16.3461 23.6655 14.8344 21.7269 14C21.7033 14.2125 21.6746 14.4306 21.6346 14.6588C21.517 15.3549 21.3043 16.0396 21 16.7015C22.2645 17.417 23.4916 18.4777 24.0344 19.7246C24.5581 20.9289 24.3581 22.2868 23.31 23.4002C23.103 23.6163 22.8663 23.8147 22.6041 23.9921L22.5939 24C24.8536 22.6382 26.4516 20.6743 27 18.4517C27 18.4478 26.9949 18.4435 26.9949 18.4395L26.9892 18.4376Z" fill="url(#paint23_linear_1798_12745)"/>
    <path style="mix-blend-mode:multiply" opacity="0.3" d="M14.0303 14.2388C14.0719 14.8091 14.1371 15.374 14.2256 15.9297C14.9313 15.6554 15.623 15.5545 16.2846 15.608L16.3899 15.6161H16.3932C16.8082 15.6723 17.2399 15.7983 17.6873 16C17.7823 15.4765 17.8625 14.9329 17.9201 14.3675C17.983 13.6624 18.0016 13.0098 17.9999 12.4416C16.9409 12.0108 15.9515 11.9236 15.0488 12.0583C14.7094 12.0949 14.3716 12.165 14.0372 12.2682C13.9895 12.9792 13.9876 13.6537 14.0319 14.2366L14.0303 14.2388Z" fill="url(#paint24_linear_1798_12745)"/>
  </g>
  <defs>
    <linearGradient id="paint0_linear_1798_12745" x1="6.44609" y1="25.5583" x2="24.2987" y2="7.70626" gradientUnits="userSpaceOnUse">
      <stop stop-color="#E6007A"/>
      <stop offset="0.21" stop-color="#703AC2"/>
      <stop offset="0.46" stop-color="#0070EB"/>
      <stop offset="0.77" stop-color="#0297FB"/>
      <stop offset="1" stop-color="#0AE2FF"/>
    </linearGradient>
    <radialGradient id="paint1_radial_1798_12745" cx="0" cy="0" r="1" gradientUnits="userSpaceOnUse" gradientTransform="translate(18.8903 13.1143) scale(5.54634 4.84946)">
      <stop stop-color="white"/>
      <stop offset="1" stop-color="white" stop-opacity="0"/>
    </radialGradient>
    <radialGradient id="paint2_radial_1798_12745" cx="0" cy="0" r="1" gradientUnits="userSpaceOnUse" gradientTransform="translate(12.4921 22.2886) scale(2.93766 3.94753)">
      <stop stop-color="white"/>
      <stop offset="1" stop-color="white" stop-opacity="0"/>
    </radialGradient>
    <linearGradient id="paint3_linear_1798_12745" x1="8.30108" y1="22.1166" x2="11.4285" y2="22.0908" gradientUnits="userSpaceOnUse">
      <stop stop-color="white" stop-opacity="0"/>
      <stop offset="1" stop-color="white"/>
    </linearGradient>
    <radialGradient id="paint4_radial_1798_12745" cx="0" cy="0" r="1" gradientUnits="userSpaceOnUse" gradientTransform="translate(11.181 14.2345) rotate(-123.484) scale(4.47743 4.75794)">
      <stop stop-color="white"/>
      <stop offset="1" stop-color="white" stop-opacity="0"/>
    </radialGradient>
    <radialGradient id="paint5_radial_1798_12745" cx="0" cy="0" r="1" gradientUnits="userSpaceOnUse" gradientTransform="translate(23.7065 16.1003) rotate(-135.784) scale(2.6246 3.0295)">
      <stop stop-color="white"/>
      <stop offset="1" stop-color="white" stop-opacity="0"/>
    </radialGradient>
    <linearGradient id="paint6_linear_1798_12745" x1="25.7321" y1="19.7858" x2="24.7825" y2="17.4553" gradientUnits="userSpaceOnUse">
      <stop stop-color="white" stop-opacity="0"/>
      <stop offset="1" stop-color="white"/>
    </linearGradient>
    <radialGradient id="paint7_radial_1798_12745" cx="0" cy="0" r="1" gradientUnits="userSpaceOnUse" gradientTransform="translate(16.3632 20.6782) rotate(123.803) scale(4.67399 4.99003)">
      <stop stop-color="white"/>
      <stop offset="1" stop-color="white" stop-opacity="0"/>
    </radialGradient>
    <radialGradient id="paint8_radial_1798_12745" cx="0" cy="0" r="1" gradientUnits="userSpaceOnUse" gradientTransform="translate(12.5342 9.3392) rotate(116.257) scale(3.28679 3.01157)">
      <stop stop-color="white"/>
      <stop offset="1" stop-color="white" stop-opacity="0"/>
    </radialGradient>
    <linearGradient id="paint9_linear_1798_12745" x1="15.7902" y1="5.26698" x2="14.0835" y2="8.31104" gradientUnits="userSpaceOnUse">
      <stop stop-color="white" stop-opacity="0"/>
      <stop offset="1" stop-color="white"/>
    </linearGradient>
    <linearGradient id="paint10_linear_1798_12745" x1="14.866" y1="4.17131" x2="10.6606" y2="5.20284" gradientUnits="userSpaceOnUse">
      <stop stop-color="#231F20"/>
      <stop offset="1" stop-color="white"/>
    </linearGradient>
    <linearGradient id="paint11_linear_1798_12745" x1="6.06891" y1="21.0854" x2="10.0365" y2="24.9246" gradientUnits="userSpaceOnUse">
      <stop stop-color="#231F20"/>
      <stop offset="1" stop-color="white"/>
    </linearGradient>
    <linearGradient id="paint12_linear_1798_12745" x1="26.6145" y1="21.2567" x2="27.585" y2="17.4394" gradientUnits="userSpaceOnUse">
      <stop stop-color="#231F20"/>
      <stop offset="1" stop-color="white"/>
    </linearGradient>
    <linearGradient id="paint13_linear_1798_12745" x1="17.4903" y1="6.45558" x2="22.9291" y2="7.58437" gradientUnits="userSpaceOnUse">
      <stop stop-color="#231F20"/>
      <stop offset="1" stop-color="white"/>
    </linearGradient>
    <linearGradient id="paint14_linear_1798_12745" x1="23.1311" y1="21.4524" x2="18.5759" y2="25.7779" gradientUnits="userSpaceOnUse">
      <stop stop-color="#231F20"/>
      <stop offset="1" stop-color="white"/>
    </linearGradient>
    <linearGradient id="paint15_linear_1798_12745" x1="7.32544" y1="19.605" x2="5.92825" y2="14.4414" gradientUnits="userSpaceOnUse">
      <stop stop-color="#231F20"/>
      <stop offset="1" stop-color="white"/>
    </linearGradient>
    <linearGradient id="paint16_linear_1798_12745" x1="17.8304" y1="9.38689" x2="15.8738" y2="10.9872" gradientUnits="userSpaceOnUse">
      <stop stop-color="#231F20"/>
      <stop offset="1" stop-color="white"/>
    </linearGradient>
    <linearGradient id="paint17_linear_1798_12745" x1="8.64064" y1="17.2516" x2="11.1734" y2="18.0122" gradientUnits="userSpaceOnUse">
      <stop stop-color="#231F20"/>
      <stop offset="1" stop-color="white"/>
    </linearGradient>
    <linearGradient id="paint18_linear_1798_12745" x1="20.2353" y1="21.0129" x2="19.667" y2="18.6602" gradientUnits="userSpaceOnUse">
      <stop stop-color="#231F20"/>
      <stop offset="1" stop-color="white"/>
    </linearGradient>
    <linearGradient id="paint19_linear_1798_12745" x1="17.0168" y1="19.3118" x2="17.6639" y2="18.0369" gradientUnits="userSpaceOnUse">
      <stop stop-color="#231F20"/>
      <stop offset="1" stop-color="white"/>
    </linearGradient>
    <linearGradient id="paint20_linear_1798_12745" x1="13.1371" y1="18.4602" x2="10.748" y2="19.6079" gradientUnits="userSpaceOnUse">
      <stop stop-color="#231F20"/>
      <stop offset="1" stop-color="white"/>
    </linearGradient>
    <linearGradient id="paint21_linear_1798_12745" x1="12.4136" y1="15.4572" x2="12.9529" y2="16.7517" gradientUnits="userSpaceOnUse">
      <stop stop-color="#231F20"/>
      <stop offset="1" stop-color="white"/>
    </linearGradient>
    <linearGradient id="paint22_linear_1798_12745" x1="15.3168" y1="10.8899" x2="14.6409" y2="9.14518" gradientUnits="userSpaceOnUse">
      <stop stop-color="#231F20"/>
      <stop offset="1" stop-color="white"/>
    </linearGradient>
    <linearGradient id="paint23_linear_1798_12745" x1="20.5711" y1="18.7202" x2="22.0975" y2="19.1781" gradientUnits="userSpaceOnUse">
      <stop stop-color="#231F20"/>
      <stop offset="1" stop-color="white"/>
    </linearGradient>
    <linearGradient id="paint24_linear_1798_12745" x1="17.83" y1="14.6843" x2="16.5097" y2="14.5388" gradientUnits="userSpaceOnUse">
      <stop stop-color="#231F20"/>
      <stop offset="1" stop-color="white"/>
    </linearGradient>
    <clipPath id="clip0_1798_12745">
      <rect width="32" height="32" rx="8" fill="white"/>
    </clipPath>
  </defs>
</svg>