<svg xmlns:xlink="http://www.w3.org/1999/xlink" xmlns="http://www.w3.org/2000/svg" width="32" height="32" viewBox="0 0 32 32" fill="none">
<rect width="32" height="32" rx="8" fill="#111821"/>
<g clip-path="url(#clip0_1242_10484)">
<path d="M15.9568 8.11517C16.6966 8.11517 17.362 8.52626 17.6931 9.18804L23.1525 20.1073C23.4554 20.7136 23.4238 21.4193 23.0677 21.996C22.7113 22.5726 22.0943 22.9168 21.4162 22.9168H10.4974C9.81979 22.9168 9.20237 22.5726 8.84633 21.996C8.48989 21.4193 8.45821 20.7136 8.76158 20.1073L14.2206 9.18804C14.5517 8.52626 15.217 8.11517 15.9568 8.11517ZM15.9568 6.78052C14.716 6.78052 13.5818 7.48151 13.0269 8.59121L7.56752 19.5104C7.05979 20.5259 7.11405 21.7318 7.71088 22.6973C8.30772 23.6629 9.36197 24.251 10.4974 24.251H21.4166C22.5521 24.251 23.6063 23.6633 24.2032 22.6973C24.8 21.7318 24.8542 20.5259 24.3465 19.5104L18.8867 8.59121C18.3319 7.48151 17.1976 6.78052 15.9568 6.78052Z" fill="#5DEB5A"/>
</g>
<defs>
<clipPath id="clip0_1242_10484">
<rect width="32" height="32" fill="white"/>
</clipPath>
</defs>
</svg>