<svg xmlns:xlink="http://www.w3.org/1999/xlink" xmlns="http://www.w3.org/2000/svg" width="32" height="32" viewBox="0 0 32 32" fill="none">
	<rect width="32" height="32" rx="8" fill="#E84142"/>
	<g clip-path="url(#clip0_377_7058)">
		<path d="M16 32C24.8366 32 32 24.8366 32 16C32 7.16344 24.8366 0 16 0C7.16344 0 0 7.16344 0 16C0 24.8366 7.16344 32 16 32Z" fill="#E84142"/>
		<path d="M20.5523 16.2333C20.9993 15.4201 21.7208 15.4201 22.1679 16.2333L24.952 21.3805C25.3991 22.1938 25.0334 22.8572 24.1391 22.8572H18.5302C17.6462 22.8572 17.2804 22.1938 17.7173 21.3805L20.5523 16.2333ZM15.1668 6.32431C15.6139 5.51104 16.3252 5.51104 16.7723 6.32431L17.3921 7.5014L18.8553 10.2087C19.211 10.9792 19.211 11.8888 18.8553 12.6593L13.9475 21.616C13.5004 22.3436 12.7585 22.8037 11.9356 22.8572H7.86089C6.96671 22.8572 6.6009 22.2044 7.04799 21.3805L15.1668 6.32431Z" fill="white"/>
	</g>
	<defs>
		<clipPath id="clip0_377_7058">
			<rect width="32" height="32" fill="white"/>
		</clipPath>
	</defs>
</svg>