<svg width="24" height="24" viewBox="0 0 24 24" fill="none" xmlns="http://www.w3.org/2000/svg">
<path d="M18.1884 5.4221H5.83152V16.6605H18.1884V5.4221Z" fill="white"/>
<path fill-rule="evenodd" clip-rule="evenodd" d="M22.0166 12C22.0166 17.5229 17.5395 22 12.0166 22C6.49375 22 2.0166 17.5229 2.0166 12C2.0166 6.47715 6.49375 2 12.0166 2C17.5395 2 22.0166 6.47715 22.0166 12ZM9.18289 15.9795H7.24217C6.83436 15.9795 6.63293 15.9795 6.5101 15.9009C6.37744 15.8149 6.29638 15.6724 6.28655 15.5152C6.27917 15.3703 6.3799 15.1934 6.58134 14.8396L11.3732 6.39328C11.5771 6.03461 11.6803 5.85527 11.8105 5.78895C11.9505 5.71771 12.1176 5.71771 12.2576 5.78895C12.3878 5.85527 12.491 6.03461 12.6949 6.39328L13.685 8.12168C13.9052 8.50646 14.0169 8.70159 14.0657 8.90638C14.1197 9.12993 14.1197 9.36577 14.0657 9.58932C14.0165 9.79567 13.906 9.99221 13.6824 10.3828L11.1654 14.8323L11.1589 14.8436C10.9372 15.2316 10.8248 15.4282 10.6691 15.5766C10.4996 15.7387 10.2957 15.8566 10.0722 15.923C9.86828 15.9795 9.63982 15.9795 9.18289 15.9795ZM14.0838 15.9795H16.8647C17.2749 15.9795 17.4813 15.9795 17.6042 15.8985C17.7368 15.8125 17.8203 15.6675 17.8278 15.5104C17.8348 15.3702 17.7363 15.2001 17.5432 14.8669C17.5366 14.8556 17.5299 14.844 17.5231 14.8323L16.1302 12.4494L16.1143 12.4226C15.9186 12.0916 15.8198 11.9244 15.6929 11.8598C15.553 11.7886 15.3882 11.7886 15.2483 11.8598C15.1205 11.9261 15.0174 12.1006 14.8135 12.4519L13.4255 14.8348L13.4207 14.843C13.2175 15.1937 13.116 15.369 13.1233 15.5128C13.1331 15.67 13.2142 15.8149 13.3469 15.9009C13.4672 15.9795 13.6736 15.9795 14.0838 15.9795Z" fill="#E84142"/>
</svg>
