<svg width="24" height="24" viewBox="0 0 24 24" fill="none" xmlns="http://www.w3.org/2000/svg">
<path fill-rule="evenodd" clip-rule="evenodd" d="M12 2C17.5232 2 22 6.47676 22 12C22 17.5232 17.5232 22 12 22C6.47676 22 2 17.5232 2 12C2 6.47676 6.47676 2 12 2Z" fill="#F0B90B"/>
<path d="M7.49599 12L7.50321 14.6442L9.75 15.9663V17.5144L6.1883 15.4255V11.2268L7.49599 12ZM7.49599 9.35577V10.8966L6.1875 10.1226V8.58173L7.49599 7.80769L8.8109 8.58173L7.49599 9.35577ZM10.6883 8.58173L11.9968 7.80769L13.3117 8.58173L11.9968 9.35577L10.6883 8.58173Z" fill="white"/>
<path d="M8.44151 14.0962V12.5481L9.75 13.3221V14.863L8.44151 14.0962ZM10.6883 16.5208L11.9968 17.2949L13.3117 16.5208V18.0617L11.9968 18.8357L10.6883 18.0617V16.5208ZM15.1883 8.58173L16.4968 7.80769L17.8117 8.58173V10.1226L16.4968 10.8966V9.35577L15.1883 8.58173ZM16.4968 14.6442L16.504 12L17.8125 11.226V15.4247L14.2508 17.5136V15.9655L16.4968 14.6442Z" fill="white"/>
<path d="M15.5585 14.0962L14.25 14.863V13.3221L15.5585 12.5481V14.0962Z" fill="white"/>
<path d="M15.5585 9.90385L15.5657 11.4519L13.3125 12.774V15.4247L12.004 16.1915L10.6955 15.4247V12.774L8.44231 11.4519V9.90385L9.75641 9.12981L11.996 10.4583L14.2492 9.12981L15.5641 9.90385H15.5585ZM8.44151 7.26042L11.9968 5.16426L15.5585 7.26042L14.25 8.03445L11.9968 6.70593L9.75 8.03445L8.44151 7.26042Z" fill="white"/>
</svg>
