<svg xmlns:xlink="http://www.w3.org/1999/xlink" xmlns="http://www.w3.org/2000/svg" width="32" height="32" viewBox="0 0 32 32" fill="none">
	<rect width="32" height="32" rx="8" fill="#17181D"/>
	<g clip-path="url(#clip0_377_7062)">
		<path d="M16 32C24.8366 32 32 24.8366 32 16C32 7.16344 24.8366 0 16 0C7.16344 0 0 7.16344 0 16C0 24.8366 7.16344 32 16 32Z" fill="#17181D"/>
		<path d="M8.79452 16.0002L8.80606 20.2309L12.4009 22.3464V24.8233L6.70221 21.481V14.763L8.79452 16.0002ZM8.79452 11.7694V14.2348L6.70093 12.9963V10.5309L8.79452 9.29248L10.8984 10.5309L8.79452 11.7694ZM13.9022 10.5309L15.9958 9.29248L18.0997 10.5309L15.9958 11.7694L13.9022 10.5309Z" fill="#F1B90C"/>
		<path d="M10.3081 19.354V16.8771L12.4017 18.1156V20.581L10.3081 19.354ZM13.9029 23.2336L15.9965 24.472L18.1004 23.2336V25.6989L15.9965 26.9373L13.9029 25.6989V23.2336ZM21.1029 10.5309L23.1965 9.29248L25.3004 10.5309V12.9963L23.1965 14.2348V11.7694L21.1029 10.5309ZM23.1965 20.2309L23.2081 16.0002L25.3017 14.7617V21.4796L19.6029 24.822V22.3451L23.1965 20.2309Z" fill="#F1B90C"/>
		<path d="M21.6939 19.3541L19.6003 20.581V18.1156L21.6939 16.8772V19.3541Z" fill="#F1B90C"/>
		<path d="M21.6953 12.6458L21.7068 15.1227L18.1017 17.2382V21.4792L16.0081 22.7061L13.9145 21.4792V17.2382L10.3094 15.1227V12.6458L12.412 11.4074L15.9953 13.533L19.6004 11.4074L21.7043 12.6458H21.6953ZM10.3081 8.41634L15.9965 5.0625L21.6953 8.41634L19.6017 9.65481L15.9965 7.52916L12.4017 9.65481L10.3081 8.41634Z" fill="#F1B90C"/>
	</g>
	<defs>
		<clipPath id="clip0_377_7062">
			<rect width="32" height="32" fill="white"/>
		</clipPath>
	</defs>
</svg>