<svg xmlns:xlink="http://www.w3.org/1999/xlink" xmlns="http://www.w3.org/2000/svg" width="32" height="32" viewBox="0 0 32 32" fill="none">
	<rect width="32" height="32" rx="8" fill="white"/>
	<g clip-path="url(#clip0_377_7083)">
		<path d="M32 16C32 7.16344 24.8366 0 16 0C7.16344 0 0 7.16344 0 16C0 24.8366 7.16344 32 16 32C24.8366 32 32 24.8366 32 16Z" fill="white"/>
		<path fill-rule="evenodd" clip-rule="evenodd" d="M24.9133 6.39941V25.5994H7.08472L10.4276 25.5993V22.2111H7.08472V9.78765H10.4276V6.39941H24.9133ZM13.2132 9.78781H21.5702V13.1761H13.2132V9.78781ZM21.5702 19.3877H13.2132V13.1761L9.87026 13.1762V19.388L13.2132 19.3877V22.7761H21.5702V19.3877Z" fill="#06FC99"/>
	</g>
	<defs>
		<clipPath id="clip0_377_7083">
			<rect width="32" height="32" fill="white"/>
		</clipPath>
	</defs>
</svg>