<svg xmlns:xlink="http://www.w3.org/1999/xlink" xmlns="http://www.w3.org/2000/svg" width="32" height="32" viewBox="0 0 32 32" fill="none">
	<rect width="32" height="32" rx="8" fill="black"/>
	<path d="M15.9816 7.00368C16.2022 7.00368 16.4228 7.05883 16.625 7.16913L23.3346 11.0478C23.7207 11.2684 23.978 11.6912 23.978 12.1507V19.9082C23.978 20.3676 23.739 20.7905 23.3346 21.0111L16.6067 24.8897C16.4228 25 16.2022 25.0551 15.9632 25.0551C15.7426 25.0551 15.522 25 15.3199 24.8897L8.62868 21.0111C8.24265 20.7905 7.9853 20.3676 7.9853 19.9082V12.1507C7.9853 11.6912 8.22427 11.2684 8.62868 11.0478L15.3566 7.16913C15.5405 7.05883 15.761 7.00368 15.9816 7.00368ZM15.9816 5C15.4117 5 14.8603 5.14706 14.3456 5.44118L7.63603 9.31986C6.625 9.9081 6 10.9743 6 12.1507V19.9082C6 21.0846 6.625 22.1508 7.63603 22.739L14.3639 26.6177C14.8787 26.9118 15.4302 27.0589 16.0001 27.0589C16.5698 27.0589 17.1213 26.9118 17.636 26.6177L24.364 22.739C25.3751 22.1508 26 21.0846 26 19.9082V12.1507C26 10.9743 25.3751 9.9081 24.364 9.31986L17.6176 5.44118C17.1213 5.14706 16.5515 5 15.9816 5Z" fill="#FB8206"/>
</svg>