<svg width="50" height="50" viewBox="0 0 50 50" fill="none" xmlns="http://www.w3.org/2000/svg">
<circle cx="25" cy="25" r="25" fill="#FFE804"/>
<path d="M28.3101 20.022C30.7268 20.5521 32.9742 21.7107 34.8286 23.4124C37.4423 25.8111 39.0473 29.0778 39.3478 32.6106L39.5832 35.3789H35.9434L35.7341 32.9173C35.5107 30.2914 34.3179 27.8633 32.375 26.0805C30.4323 24.2976 27.9095 23.3157 25.2714 23.3157H24.7283C22.0902 23.3157 19.5674 24.2976 17.6247 26.0805C15.6819 27.8633 14.489 30.2914 14.2656 32.9173L14.0563 35.3789H10.4165L10.652 32.6106C10.9524 29.0778 12.5573 25.8111 15.1711 23.4124C17.0215 21.7143 19.2631 20.5572 21.6739 20.0256C21.5454 19.9215 21.4189 19.8085 21.2964 19.6861C20.2201 18.6109 19.8379 17.2494 20.4428 16.645C20.9861 16.1023 22.1408 16.3553 23.1502 17.1914C23.3411 15.6981 24.0919 14.5833 24.9898 14.5833C25.8877 14.5833 26.6386 15.6981 26.8295 17.1914C27.8388 16.3553 28.9935 16.1023 29.5368 16.645C30.1417 17.2494 29.7596 18.6109 28.6833 19.6861C28.5621 19.8071 28.4371 19.9189 28.3101 20.022Z" fill="#1A1A1B"/>
<path d="M21.444 27.9697C20.7232 27.9697 20.1389 29.0083 20.1389 30.2894C20.1389 31.5706 20.7232 32.6091 21.444 32.6091C22.1648 32.6091 22.7491 31.5706 22.7491 30.2894C22.7491 29.0083 22.1648 27.9697 21.444 27.9697Z" fill="#1A1A1B"/>
<path d="M27.2506 30.2894C27.2506 29.0083 27.8349 27.9697 28.5557 27.9697C29.2765 27.9697 29.8608 29.0083 29.8608 30.2894C29.8608 31.5706 29.2765 32.6091 28.5557 32.6091C27.8349 32.6091 27.2506 31.5706 27.2506 30.2894Z" fill="#1A1A1B"/>
</svg>
