<svg xmlns:xlink="http://www.w3.org/1999/xlink" xmlns="http://www.w3.org/2000/svg" width="32" height="32" viewBox="0 0 32 32" fill="none">
	<rect width="32" height="32" rx="8" fill="black"/>
	<path d="M32 16C32 7.16344 24.8366 0 16 0C7.16345 0 0 7.16344 0 16C0 24.8366 7.16345 32 16 32C24.8366 32 32 24.8366 32 16Z" fill="#010101"/>
	<path d="M12.7746 8.06205L15.8673 6.27588C15.9553 6.2251 16.0648 6.2251 16.1528 6.27588L24.3043 10.9822C24.3923 11.033 24.4466 11.127 24.4474 11.2287L24.4583 14.4656C24.4583 14.568 24.4043 14.6629 24.3152 14.7137L21.2267 16.4973C21.0371 16.6074 20.7989 16.4702 20.7981 16.2509L20.7879 13.3459C20.7879 13.2443 20.7328 13.1503 20.6448 13.0995L12.7746 8.55663C12.5839 8.44653 12.5839 8.17215 12.7746 8.06205Z" fill="#B4F9BA"/>
	<path d="M10.7766 22.7236L7.6846 20.9383C7.5955 20.8875 7.5415 20.7935 7.5415 20.691V11.2784C7.5415 11.1768 7.5955 11.0828 7.68385 11.0311L10.4821 9.40251C10.5708 9.35086 10.6799 9.35086 10.7683 9.40251L13.8569 11.1861C14.0464 11.2962 14.0475 11.5698 13.8576 11.6807L11.3475 13.1417C11.2595 13.1925 11.2051 13.2865 11.2051 13.389V22.4772C11.2051 22.6974 10.9673 22.8346 10.7766 22.7245V22.7236Z" fill="#B4F9BA"/>
	<path d="M24.4581 17.12V20.6906C24.4581 20.7931 24.4037 20.887 24.315 20.9379L16.1635 25.6444C16.0755 25.695 15.9668 25.695 15.8788 25.6444L13.0696 24.0351C12.9805 23.9842 12.9258 23.8894 12.9258 23.7869V20.2205C12.9258 20.0012 13.1629 19.864 13.3532 19.9724L15.8739 21.4164C15.9619 21.4672 16.0702 21.4664 16.1582 21.4164L24.0288 16.8718C24.2191 16.7617 24.4574 16.8989 24.4574 17.1191L24.4581 17.12Z" fill="#B4F9BA"/>
</svg>