<svg xmlns:xlink="http://www.w3.org/1999/xlink" xmlns="http://www.w3.org/2000/svg" data-v-42c3030e="" class="svg-icon" aria-hidden="true" width="30"  height="30" ><defs><symbol viewBox="0 0 18 18" fill="none" id="icon-logo"><path d="M0 3.98A3.98 3.98 0 0 1 3.98 0h10.04A3.98 3.98 0 0 1 18 3.98v10.04A3.98 3.98 0 0 1 14.02 18H3.98A3.98 3.98 0 0 1 0 14.02V3.98Z" fill="#FFFFFF"></path><g filter="url(#icon-logo_a)" fill="none"><path d="M14.023 8.481a8.775 8.775 0 0 1-.287 1.618 4.932 4.932 0 0 1-4.808 3.83 4.929 4.929 0 0 1-4.93-4.926 4.929 4.929 0 0 1 4.93-4.926c1.766 0 3.316.928 4.187 2.324l1.587.448-1.2.311-1.786.479a3.105 3.105 0 0 0-5.893 1.364 3.106 3.106 0 0 0 6.005 1.108L9.11 9.58l4.93-1.307-.017.208Z" fill="#1F2231"></path></g><defs><filter id="icon-logo_a" x="2.537" y="2.617" width="13.624" height="12.773" filterUnits="userSpaceOnUse" color-interpolation-filters="sRGB"><feFlood flood-opacity="0" result="BackgroundImageFix"></feFlood><feColorMatrix in="SourceAlpha" values="0 0 0 0 0 0 0 0 0 0 0 0 0 0 0 0 0 0 127 0" result="hardAlpha"></feColorMatrix><feOffset></feOffset><feGaussianBlur stdDeviation=".73"></feGaussianBlur><feComposite in2="hardAlpha" operator="out"></feComposite><feColorMatrix values="0 0 0 0 0.619608 0 0 0 0 0.623529 0 0 0 0 0.647059 0 0 0 1 0"></feColorMatrix><feBlend in2="BackgroundImageFix" result="effect1_dropShadow_2378_1183"></feBlend><feBlend in="SourceGraphic" in2="effect1_dropShadow_2378_1183" result="shape"></feBlend></filter></defs></symbol></defs><use xlink:href="#icon-logo" fill="#333333"></use></svg>