<svg xmlns:xlink="http://www.w3.org/1999/xlink" xmlns="http://www.w3.org/2000/svg" width="32" height="32" viewBox="0 0 32 32" fill="none">
	<rect width="32" height="32" rx="8" fill="#04795B"/>
	<g clip-path="url(#clip0_377_7065)">
		<path d="M32 16C32 7.16344 24.8366 0 16 0C7.16344 0 0 7.16344 0 16C0 24.8366 7.16344 32 16 32C24.8366 32 32 24.8366 32 16Z" fill="#04795B"/>
		<path d="M11.6529 17.4491C12.2831 17.4491 12.8648 17.2392 13.3334 16.8757L9.4877 13.0315C9.12412 13.4918 8.9141 14.0733 8.9141 14.7113C8.906 16.2216 10.134 17.4491 11.6529 17.4491Z" fill="#EFEFEF"/>
		<path d="M23.0923 14.7033C23.0923 14.0734 22.8822 13.4919 22.5187 13.0234L18.6731 16.8677C19.1336 17.2311 19.7153 17.441 20.3534 17.441C21.8643 17.4491 23.0923 16.2216 23.0923 14.7033Z" fill="#EFEFEF"/>
		<path d="M25.0315 10.5278L23.3268 12.2319C23.8923 12.9103 24.2316 13.7664 24.2316 14.7194C24.2316 16.8595 22.4946 18.5959 20.3537 18.5959C19.4084 18.5959 18.544 18.2567 17.8653 17.6914L15.999 19.557L14.1328 17.6914C13.4541 18.2567 12.5977 18.5959 11.6444 18.5959C9.50342 18.5959 7.76646 16.8595 7.76646 14.7194C7.76646 13.7744 8.10578 12.9103 8.67132 12.2319L7.79874 11.3597L6.96662 10.5278C5.99714 12.1269 5.4397 13.9925 5.4397 15.9954C5.4397 21.8263 10.1659 26.5428 15.9909 26.5428C21.816 26.5428 26.5422 21.8183 26.5422 15.9954C26.5584 13.9844 26.001 12.1188 25.0315 10.5278Z" fill="#EFEFEF"/>
		<path d="M23.6343 8.71078C21.7196 6.69984 19.005 5.43994 15.9996 5.43994C12.9942 5.43994 10.2877 6.69984 8.36483 8.71078C8.10632 8.98538 7.85587 9.2761 7.62158 9.57494L15.9915 17.9419L24.3615 9.56688C24.1514 9.2761 23.901 8.97728 23.6343 8.71078ZM15.9996 6.8129C18.4718 6.8129 20.7663 7.76586 22.4871 9.50224L15.9996 15.9874L9.51208 9.50224C11.241 7.76586 13.5274 6.8129 15.9996 6.8129Z" fill="#EFEFEF"/>
	</g>
	<defs>
		<clipPath id="clip0_377_7065">
			<rect width="32" height="32" fill="white"/>
		</clipPath>
	</defs>
</svg>