<svg width="14" height="14" viewBox="0 0 14 14" fill="none" xmlns="http://www.w3.org/2000/svg">
<g id="Group">
<path id="Vector" d="M0.945325 6.42844L4.97334 0.5L7.00067 3.50348L4.94466 6.50801H0.986302C0.977313 6.50783 0.968532 6.5052 0.960878 6.50038C0.953223 6.49556 0.946976 6.48873 0.942788 6.48061C0.938601 6.47247 0.936627 6.46334 0.937074 6.45417C0.93752 6.44498 0.94037 6.43611 0.945325 6.42844Z" fill="#7E49FC"/>
<path id="Vector_2" d="M13.0548 6.42844L9.02679 0.5L7.00049 3.50348L9.05546 6.50801H13.0138C13.0228 6.50783 13.0316 6.5052 13.0393 6.50038C13.0469 6.49556 13.0531 6.48873 13.0573 6.48061C13.0615 6.47247 13.0635 6.46334 13.063 6.45417C13.0626 6.44498 13.0598 6.43611 13.0548 6.42844Z" fill="#7E49FC"/>
<path id="Vector_3" d="M13.1245 7.28467C13.135 8.11339 12.9843 8.93599 12.6812 9.70473C12.3782 10.4735 11.9287 11.173 11.3589 11.7629C10.7892 12.3527 10.1105 12.821 9.36223 13.1406C8.61396 13.4603 7.81102 13.6249 7 13.6249C6.18899 13.6249 5.38605 13.4603 4.63779 13.1406C3.88952 12.821 3.21081 12.3527 2.64106 11.7629C2.0713 11.173 1.62185 10.4735 1.31877 9.70473C1.01569 8.93599 0.865024 8.11339 0.875512 7.28467H4.76831C4.76195 7.588 4.8149 7.88957 4.9241 8.17171C5.03329 8.45385 5.19651 8.71086 5.40418 8.92768C5.61186 9.14451 5.85981 9.31676 6.13348 9.43437C6.40716 9.55198 6.70107 9.61256 6.99795 9.61256C7.29484 9.61256 7.58875 9.55198 7.86243 9.43437C8.13611 9.31676 8.38406 9.14451 8.59172 8.92768C8.7994 8.71086 8.96261 8.45385 9.07181 8.17171C9.181 7.88957 9.23397 7.588 9.2276 7.28467H13.1245Z" fill="#0066FF"/>
</g>
</svg>
