<svg xmlns:xlink="http://www.w3.org/1999/xlink" xmlns="http://www.w3.org/2000/svg" width="32" height="32" viewBox="0 0 32 32" fill="none">
 <rect width="32" height="32" rx="8" fill="#FF443F"/>
 <g clip-path="url(#clip0_377_7051)">
  <path d="M32 16C32 7.16344 24.8366 0 16 0C7.16344 0 0 7.16344 0 16C0 24.8366 7.16344 32 16 32C24.8366 32 32 24.8366 32 16Z" fill="#FF443F"/>
  <path d="M25.1199 25.0568C24.8724 25.0844 24.7226 25.1149 24.573 25.1149C23.4906 25.1149 22.4081 25.1315 21.3276 25.1048C21.1022 25.0921 20.891 24.9925 20.7402 24.8277C18.5188 22.0027 16.3162 19.1611 14.1024 16.3315C13.8558 16.0184 13.8596 15.8199 14.1109 15.5004C16.3135 12.7012 18.4897 9.88088 20.6922 7.08176C20.855 6.88927 21.0881 6.76722 21.3417 6.74191C22.4534 6.70682 23.5678 6.72344 24.6804 6.72714C24.8257 6.74167 24.9695 6.7676 25.1105 6.80471C24.9994 6.98018 24.9308 7.10946 24.8423 7.22397C22.7087 9.99939 20.5737 12.7723 18.4369 15.5428C18.2167 15.8273 18.2196 16.0139 18.4369 16.2992C20.5818 19.0641 22.7178 21.8347 24.845 24.6107C24.9308 24.7289 24.9929 24.8507 25.1199 25.0568Z" fill="white"/>
  <path d="M12.3069 15.9417C12.3069 18.8027 12.2957 21.6581 12.3171 24.5161C12.3171 24.9905 12.1633 25.1345 11.7067 25.1189C10.948 25.0912 10.1866 25.0995 9.4261 25.1096C9.10176 25.1096 8.95451 25.0248 8.96011 24.6657C8.96818 18.8424 8.96818 13.0183 8.96011 7.1937C8.96011 6.84948 9.09525 6.73226 9.4261 6.73226C10.2015 6.74057 10.9788 6.75257 11.7561 6.72119C12.222 6.70273 12.3227 6.89376 12.3199 7.31829C12.305 10.1921 12.3124 13.066 12.3124 15.9399L12.3069 15.9417Z" fill="white"/>
 </g>
 <defs>
  <clipPath id="clip0_377_7051">
   <rect width="32" height="32" fill="white"/>
  </clipPath>
 </defs>
</svg>