<svg width="798" height="780" viewBox="0 0 798 780" fill="none" xmlns="http://www.w3.org/2000/svg">
<g clip-path="url(#clip0_35_6906)">
<path d="M0 200.014C110.179 200.014 199.507 110.451 199.507 0C199.507 110.451 288.835 200.014 399.014 200.014C399.014 310.465 309.686 400.028 199.507 400.028C89.3277 400.028 0 310.465 0 200.014Z" fill="#191919"/>
<path d="M598.493 0C598.493 110.451 687.821 200.014 798 200.014C687.821 200.014 598.493 289.578 598.493 400.028C488.314 400.028 398.986 310.465 398.986 200.014C398.986 89.5637 488.314 0 598.493 0Z" fill="#191919"/>
<path d="M798 600.014C687.821 600.014 598.493 689.578 598.493 800.028C598.493 689.578 509.166 600.014 398.986 600.014C398.986 489.564 488.314 400 598.493 400C708.673 400 798 489.564 798 600.014Z" fill="#191919"/>
<path d="M199.507 799.999C199.507 689.549 110.179 599.985 0 599.985C110.179 599.985 199.507 510.421 199.507 399.971C309.686 399.971 399.014 489.534 399.014 599.985C399.014 710.435 309.686 799.999 199.507 799.999Z" fill="#191919"/>
</g>
<defs>
<clipPath id="clip0_35_6906">
<rect width="798" height="800" fill="white"/>
</clipPath>
</defs>
</svg>
