<svg width="30" height="30" viewBox="0 0 30 30" fill="none" xmlns="http://www.w3.org/2000/svg">
<path d="M15.0427 0C13.9151 0 12.8061 0.240297 11.7525 0.665435C10.7174 1.10906 9.77467 1.73752 8.97985 2.55083C8.18502 3.36414 7.55656 4.30684 7.13142 5.36044C6.70628 6.41405 6.48447 7.54159 6.50295 8.66913V11.5342H13.4346V7.37523C13.4346 7.1719 13.4715 6.98706 13.5455 6.80222C13.6194 6.61738 13.7303 6.45102 13.8597 6.32163C13.9891 6.19224 14.1554 6.08133 14.3403 6.00739C14.5251 5.93346 14.71 5.89649 14.9133 5.89649H15.1721C15.3569 5.89649 15.5603 5.93346 15.7451 6.00739C15.9299 6.08133 16.0963 6.19224 16.2257 6.32163C16.3551 6.45102 16.466 6.61738 16.5399 6.80222C16.6139 6.98706 16.6508 7.1719 16.6508 7.37523V18.5028C17.5566 18.5028 18.4623 18.3179 19.3126 17.9667C20.1628 17.6155 20.9207 17.098 21.5676 16.451C22.2146 15.8041 22.7322 15.0277 23.0649 14.1959C23.4161 13.3457 23.6009 12.4399 23.6009 11.5342V8.66913C23.6009 6.37708 22.7137 4.15897 21.1055 2.53235C20.3107 1.71904 19.368 1.09057 18.3329 0.64695C17.2793 0.221811 16.1702 0 15.0427 0Z" fill="#1D1D1B"/>
<path d="M15.1721 24.1405H14.9133C14.7285 24.1405 14.5251 24.1035 14.3403 24.0296C14.1554 23.9556 14.0076 23.8447 13.8597 23.7153C13.7303 23.586 13.6194 23.4196 13.5455 23.2348C13.4715 23.0499 13.4346 22.8651 13.4346 22.6617V11.5342C12.5288 11.5342 11.6231 11.719 10.7728 12.0702C9.92255 12.4214 9.16469 12.939 8.51774 13.586C7.87079 14.2329 7.35323 15.0092 7.02051 15.841C6.66931 16.6913 6.48447 17.597 6.48447 18.5028V21.3309C6.46598 22.4584 6.68779 23.586 7.11293 24.6396C7.53807 25.6932 8.16654 26.6543 8.96136 27.4492C9.75619 28.2625 10.6989 28.8909 11.734 29.3346C12.7691 29.7782 13.8967 30 15.0242 30C16.1517 30 17.2793 29.7782 18.3144 29.3346C19.3495 28.8909 20.3107 28.2625 21.0871 27.4492C21.8819 26.6359 22.5103 25.6932 22.9355 24.6396C23.3606 23.586 23.5639 22.4584 23.5639 21.3309V18.5028H16.6323V22.6617C16.6323 22.8651 16.5954 23.0499 16.5214 23.2348C16.4475 23.4196 16.3366 23.586 16.2072 23.7153C16.0778 23.8447 15.9115 23.9556 15.7266 24.0296C15.5603 24.1035 15.3754 24.1405 15.1721 24.1405Z" fill="#1D1D1B"/>
</svg>
