<svg xmlns:xlink="http://www.w3.org/1999/xlink" xmlns="http://www.w3.org/2000/svg" width="32" height="32" viewBox="0 0 32 32" fill="none">
	<rect width="32" height="32" rx="8" fill="black"/>
	<path d="M28 16C28 9.37258 22.6274 4 16 4C9.37258 4 4 9.37258 4 16C4 22.6274 9.37258 28 16 28C22.6274 28 28 22.6274 28 16Z" fill="#010101"/>
	<path d="M28 16C28 9.37258 22.6274 4 16 4C9.37258 4 4 9.37258 4 16C4 22.6274 9.37258 28 16 28C22.6274 28 28 22.6274 28 16Z" fill="#010101"/>
	<path d="M8.94434 12.4221L5.30594 10.5708C5.01794 11.1272 4.77794 11.7123 4.58594 12.3166L8.47394 13.5732C8.59874 13.1799 8.76194 12.7962 8.94434 12.4317V12.4221Z" fill="white"/>
	<path d="M12.0354 9.15092L14.0514 12.6233C14.349 12.4507 14.6562 12.326 14.9922 12.2301L13.9458 8.35476C14.2146 8.28761 14.4834 8.22047 14.7522 8.1821L14.109 4.15332C13.485 4.24924 12.8706 4.40272 12.2754 4.59457L13.5234 8.41231C13.1298 8.53701 12.7362 8.70008 12.3714 8.89193L10.5378 5.31399C9.98097 5.60176 9.44337 5.9279 8.93457 6.302L11.3442 9.60176C11.565 9.43869 11.7954 9.29481 12.0354 9.15092Z" fill="white"/>
	<path d="M22.8448 12.029L19.3696 14.0434C19.5424 14.3407 19.6672 14.6477 19.7632 14.9834L23.6416 13.9379C23.7088 14.2064 23.776 14.475 23.8144 14.7436L27.8464 14.1009C27.7504 13.4774 27.5968 12.8635 27.4048 12.2688L23.584 13.5158C23.4496 13.1225 23.296 12.7388 23.104 12.3647L26.6752 10.5326C26.3872 9.97623 26.0608 9.43906 25.6864 8.93066L22.384 11.3383C22.5472 11.559 22.6912 11.7892 22.8352 12.029H22.8448Z" fill="white"/>
	<path d="M21.4335 5.30439C20.8767 5.01662 20.2911 4.77681 19.6863 4.58496L18.4287 8.46985C18.8223 8.59455 19.2063 8.75762 19.5711 8.93988L21.4239 5.30439H21.4335Z" fill="white"/>
	<path d="M19.9839 9.08385L17.9487 12.6234C18.2463 12.7961 18.5151 12.9975 18.7551 13.2469L24.4767 7.51071C24.0351 7.06946 23.5551 6.65699 23.0463 6.29248L20.6847 9.54428C20.4639 9.38121 20.2239 9.22773 19.9839 9.09344V9.08385Z" fill="white"/>
	<path d="M9.07876 12.0192L12.6116 14.0623C12.7844 13.765 12.9956 13.4964 13.2356 13.2566L7.50436 7.53955C7.06276 7.9808 6.64996 8.46041 6.28516 8.96881L9.53956 11.3285C9.37636 11.5491 9.22276 11.789 9.08836 12.0288L9.07876 12.0192Z" fill="white"/>
	<path d="M17.2382 8.11511L17.8526 4.14388C17.2382 4.04796 16.6238 4 15.9998 4H15.9902V12.0959H15.9998C16.3454 12.0959 16.6814 12.1439 17.0078 12.2302L18.0542 8.28777C17.7854 8.22062 17.5166 8.16307 17.2382 8.11511Z" fill="white"/>
	<path d="M12.2272 14.9928L8.2816 13.9473C8.2144 14.2159 8.1568 14.4844 8.1088 14.7626L4.144 14.1487C4.048 14.7626 4 15.3861 4 16.0096H12.1024C12.1024 15.6643 12.1504 15.3286 12.2368 15.0024L12.2272 14.9928Z" fill="white"/>
	<path d="M23.0557 19.5778L26.6941 21.4292C26.9821 20.8728 27.2221 20.2877 27.4141 19.6834L23.5261 18.4268C23.4013 18.82 23.2381 19.2037 23.0557 19.5682V19.5778Z" fill="white"/>
	<path d="M19.9646 22.8396L17.9486 19.3672C17.651 19.5398 17.3438 19.6645 17.0078 19.7605L18.0542 23.6358C17.7854 23.7029 17.5166 23.7701 17.2478 23.8084L17.891 27.8372C18.515 27.7413 19.1294 27.5878 19.7246 27.396L18.4766 23.5782C18.8702 23.4535 19.2638 23.2904 19.6286 23.0986L21.4622 26.6765C22.019 26.3888 22.5566 26.0626 23.0654 25.6885L20.6558 22.3888C20.435 22.5518 20.2046 22.6957 19.9646 22.8396Z" fill="white"/>
	<path d="M9.15492 19.971L12.6301 17.9566C12.4573 17.6593 12.3325 17.3523 12.2365 17.0166L8.35812 18.0622C8.29092 17.7936 8.22372 17.525 8.18532 17.2564L4.15332 17.8991C4.24932 18.5226 4.40292 19.1365 4.59492 19.7312L8.41572 18.4842C8.55012 18.8775 8.70372 19.2708 8.89572 19.6353L5.32452 21.4674C5.61252 22.0238 5.93892 22.561 6.31332 23.0694L9.61572 20.6617C9.45252 20.4411 9.29892 20.2108 9.16452 19.971H9.15492Z" fill="white"/>
	<path d="M10.5664 26.6956C11.1232 26.9833 11.7088 27.2231 12.3136 27.415L13.5712 23.5301C13.1776 23.4054 12.7936 23.2423 12.4288 23.0601L10.576 26.6956H10.5664Z" fill="white"/>
	<path d="M12.0162 22.916L14.0514 19.3764C13.7538 19.2038 13.485 19.0023 13.245 18.7529L7.52344 24.4891C7.96504 24.9304 8.44504 25.3429 8.95384 25.7074L11.3154 22.4556C11.5362 22.6186 11.7762 22.7721 12.0162 22.9064V22.916Z" fill="white"/>
	<path d="M22.9214 19.9807L19.3886 17.9375C19.2158 18.2349 19.0046 18.5034 18.7646 18.7433L24.4958 24.4603C24.9374 24.019 25.3502 23.5394 25.715 23.031L22.4606 20.6713C22.6238 20.4507 22.7774 20.2109 22.9118 19.9711L22.9214 19.9807Z" fill="white"/>
	<path d="M14.9922 19.7695L13.9458 23.712C14.2146 23.7791 14.4834 23.8367 14.7618 23.8846L14.1474 27.8559C14.7618 27.9518 15.3762 27.9997 16.0002 27.9997H16.0098V19.9038H16.0002C15.6546 19.9038 15.3186 19.8559 14.9922 19.7695Z" fill="white"/>
	<path d="M19.8976 16C19.8976 16.3453 19.8496 16.6811 19.7632 17.0072L23.7088 18.0528C23.776 17.7842 23.8336 17.5156 23.8816 17.2374L27.856 17.8609C27.952 17.247 28 16.6235 28 16H19.8976Z" fill="white"/>
</svg>