<svg xmlns:xlink="http://www.w3.org/1999/xlink" xmlns="http://www.w3.org/2000/svg" width="32" height="32" viewBox="0 0 32 32" fill="none">
	<rect width="32" height="32" rx="8" fill="#1D1336"/>
	<circle cx="16" cy="16" r="16" fill="#1D1336"/>
	<g clip-path="url(#clip0_377_7080)">
		<path d="M15.8031 7.61914C14.2045 7.61914 12.6714 8.25965 11.541 9.39975C10.4107 10.5399 9.77565 12.0862 9.77565 13.6985C9.75545 13.9966 9.75545 14.2957 9.77565 14.5937C10.7821 13.9596 11.9112 13.5496 13.0874 13.3912C15.6043 13.3912 16.7966 15.7161 19.1148 15.7161C20.0452 15.6308 20.9344 15.2887 21.6847 14.7274C21.749 14.3883 21.7801 14.0437 21.7775 13.6985C21.7741 12.0965 21.1452 10.5602 20.027 9.42236C18.9088 8.28453 17.3913 7.6367 15.8031 7.61914V7.61914Z" fill="#F2B705"/>
		<path d="M19.1943 17.2927C18.0825 17.2177 17.0197 16.803 16.1475 16.1036C15.293 15.4256 14.2524 15.0291 13.1669 14.9679C12.0416 15.098 10.962 15.4915 10.0141 16.1169C9.97661 16.1477 9.93288 16.1699 9.886 16.1818C9.83912 16.1937 9.79022 16.1951 9.74274 16.1859C9.69526 16.1768 9.65034 16.1572 9.61115 16.1287C9.57195 16.1001 9.53943 16.0632 9.51587 16.0207C9.49231 15.9781 9.47827 15.9308 9.47476 15.8822C9.47124 15.8335 9.47832 15.7847 9.4955 15.7391C9.51268 15.6936 9.53955 15.6523 9.57422 15.6183C9.60889 15.5844 9.65052 15.5584 9.69618 15.5424C10.7418 14.8621 11.93 14.4366 13.1669 14.2998C14.3745 14.3642 15.5342 14.7976 16.4919 15.5424C17.2484 16.1614 18.171 16.5382 19.1413 16.6247C20.0297 16.5325 20.8744 16.1898 21.5788 15.6359C21.6152 15.6109 21.6561 15.5935 21.6993 15.5847C21.7424 15.5759 21.7869 15.5758 21.83 15.5845C21.8732 15.5932 21.9142 15.6105 21.9507 15.6354C21.9872 15.6603 22.0183 15.6923 22.0424 15.7295C22.0883 15.8026 22.1043 15.8908 22.087 15.9755C22.0697 16.0602 22.0204 16.1349 21.9497 16.1837C21.1514 16.8048 20.1972 17.1888 19.1943 17.2927Z" fill="#53CBC8"/>
		<path d="M10.5306 20.2189C10.4428 20.2189 10.3586 20.1838 10.2965 20.1211C10.2344 20.0585 10.1995 19.9735 10.1995 19.8849V16.9722C10.2147 16.8966 10.2553 16.8288 10.3144 16.78C10.3736 16.7312 10.4476 16.7046 10.524 16.7046C10.6004 16.7046 10.6745 16.7312 10.7336 16.78C10.7927 16.8288 10.8334 16.8966 10.8486 16.9722V19.8849C10.8486 19.9712 10.8156 20.0542 10.7563 20.1165C10.697 20.1788 10.6162 20.2155 10.5306 20.2189Z" fill="#53CBC8"/>
		<path d="M12.0145 20.3391C11.9267 20.3391 11.8425 20.3039 11.7803 20.2412C11.7182 20.1786 11.6833 20.0936 11.6833 20.005V15.9966C11.6833 15.908 11.7182 15.8231 11.7803 15.7604C11.8425 15.6978 11.9267 15.6626 12.0145 15.6626C12.1024 15.6626 12.1866 15.6978 12.2487 15.7604C12.3108 15.8231 12.3457 15.908 12.3457 15.9966V20.005C12.3457 20.0936 12.3108 20.1786 12.2487 20.2412C12.1866 20.3039 12.1024 20.3391 12.0145 20.3391Z" fill="#53CBC8"/>
		<path d="M13.4981 24.0003C13.4546 23.9986 13.4119 23.9882 13.3724 23.9698C13.3328 23.9514 13.2973 23.9254 13.2678 23.8931C13.2382 23.8608 13.2153 23.823 13.2003 23.7818C13.1853 23.7406 13.1784 23.6968 13.1802 23.6529V16.0503C13.1801 15.964 13.2132 15.881 13.2725 15.8187C13.3317 15.7565 13.4126 15.7198 13.4981 15.7163C13.586 15.7163 13.6702 15.7515 13.7323 15.8141C13.7944 15.8768 13.8293 15.9618 13.8293 16.0503V23.6529C13.8311 23.6979 13.8239 23.7428 13.808 23.7849C13.7922 23.8269 13.7681 23.8654 13.7371 23.8978C13.7062 23.9302 13.6691 23.9561 13.628 23.9737C13.5869 23.9913 13.5428 24.0003 13.4981 24.0003Z" fill="#53CBC8"/>
		<path d="M14.9949 20.0318C14.9465 20.0324 14.8987 20.0224 14.8546 20.0023C14.8105 19.9823 14.7713 19.9528 14.7398 19.9159C14.7082 19.879 14.685 19.8355 14.6719 19.7886C14.6588 19.7417 14.656 19.6924 14.6637 19.6443V16.6915C14.6637 16.6029 14.6986 16.5179 14.7607 16.4553C14.8228 16.3926 14.907 16.3574 14.9949 16.3574C15.0827 16.3574 15.1669 16.3926 15.229 16.4553C15.2912 16.5179 15.326 16.6029 15.326 16.6915V19.6443C15.3338 19.6924 15.331 19.7417 15.3178 19.7886C15.3047 19.8355 15.2815 19.879 15.25 19.9159C15.2184 19.9528 15.1792 19.9823 15.1352 20.0023C15.0911 20.0224 15.0432 20.0324 14.9949 20.0318Z" fill="#53CBC8"/>
		<path d="M16.4786 19.0431C16.3908 19.0431 16.3066 19.0079 16.2445 18.9453C16.1824 18.8826 16.1475 18.7977 16.1475 18.7091V17.4932C16.1475 17.4046 16.1824 17.3197 16.2445 17.257C16.3066 17.1944 16.3908 17.1592 16.4786 17.1592C16.5665 17.1592 16.6507 17.1944 16.7128 17.257C16.7749 17.3197 16.8098 17.4046 16.8098 17.4932V18.7091C16.8098 18.7977 16.7749 18.8826 16.7128 18.9453C16.6507 19.0079 16.5665 19.0431 16.4786 19.0431Z" fill="#53CBC8"/>
		<path d="M17.9623 22.4504C17.8744 22.4504 17.7902 22.4152 17.7281 22.3525C17.666 22.2899 17.6311 22.2049 17.6311 22.1163V18.108C17.6311 18.0194 17.666 17.9344 17.7281 17.8718C17.7902 17.8091 17.8744 17.7739 17.9623 17.7739C18.0501 17.7739 18.1343 17.8091 18.1965 17.8718C18.2586 17.9344 18.2935 18.0194 18.2935 18.108V22.1163C18.2935 22.2049 18.2586 22.2899 18.1965 22.3525C18.1343 22.4152 18.0501 22.4504 17.9623 22.4504Z" fill="#53CBC8"/>
		<path d="M19.4459 22.1829C19.3581 22.1829 19.2739 22.1477 19.2117 22.0851C19.1496 22.0225 19.1147 21.9375 19.1147 21.8489V18.3082C19.1147 18.2196 19.1496 18.1346 19.2117 18.072C19.2739 18.0093 19.3581 17.9741 19.4459 17.9741C19.5338 17.9741 19.618 18.0093 19.6801 18.072C19.7422 18.1346 19.7771 18.2196 19.7771 18.3082V21.8756C19.7704 21.9595 19.7326 22.0378 19.6712 22.0947C19.6098 22.1517 19.5294 22.1832 19.4459 22.1829Z" fill="#53CBC8"/>
		<path d="M20.943 19.8984C20.8552 19.8984 20.7709 19.8632 20.7088 19.8005C20.6467 19.7379 20.6118 19.6529 20.6118 19.5643V17.814C20.6118 17.7254 20.6467 17.6405 20.7088 17.5778C20.7709 17.5152 20.8552 17.48 20.943 17.48C21.0308 17.48 21.1151 17.5152 21.1772 17.5778C21.2393 17.6405 21.2742 17.7254 21.2742 17.814V19.5643C21.2742 19.6529 21.2393 19.7379 21.1772 19.8005C21.1151 19.8632 21.0308 19.8984 20.943 19.8984Z" fill="#53CBC8"/>
	</g>
	<defs>
		<clipPath id="clip0_377_7080">
			<rect width="12.5714" height="16.381" fill="white" transform="translate(9.52393 7.61914)"/>
		</clipPath>
	</defs>
</svg>