<svg xmlns:xlink="http://www.w3.org/1999/xlink" xmlns="http://www.w3.org/2000/svg" width="32" height="32" viewBox="0 0 32 32" fill="none">
	<rect width="32" height="32" rx="8" fill="#1D1336"/>
	<circle cx="16" cy="16" r="16" fill="#1D1336"/>
	<path d="M9.15247 15.5987C9.15247 15.4061 9.30934 15.25 9.50285 15.25H22.4672C22.6607 15.25 22.8175 15.4061 22.8175 15.5987C22.8175 15.7913 22.6607 15.9474 22.4672 15.9474H9.50285C9.30934 15.9474 9.15247 15.7913 9.15247 15.5987Z" fill="#E1147B"/>
	<path d="M6.52457 17.133C6.52457 16.9404 6.68144 16.7843 6.87495 16.7843H16.3354C16.5289 16.7843 16.6858 16.9404 16.6858 17.133C16.6858 17.3255 16.5289 17.4817 16.3354 17.4817H6.87495C6.68144 17.4817 6.52457 17.3255 6.52457 17.133Z" fill="#E1147B"/>
	<path d="M15.3193 21.3871C15.1258 21.3871 14.9689 21.5432 14.9689 21.7358C14.9689 21.9284 15.1258 22.0845 15.3193 22.0845H21.1707C21.3642 22.0845 21.5211 21.9284 21.5211 21.7358C21.5211 21.5432 21.3642 21.3871 21.1707 21.3871H15.3193Z" fill="#E1147B"/>
	<path d="M11.3949 23.27C11.3949 23.0775 11.5518 22.9214 11.7453 22.9214H17.5617C17.7553 22.9214 17.9121 23.0775 17.9121 23.27C17.9121 23.4626 17.7553 23.6187 17.5617 23.6187H11.7453C11.5518 23.6187 11.3949 23.4626 11.3949 23.27Z" fill="#E1147B"/>
	<path d="M9.50285 18.3185C9.30934 18.3185 9.15247 18.4747 9.15247 18.6672C9.15247 18.8598 9.30934 19.0159 9.50285 19.0159H20.9255C21.119 19.0159 21.2758 18.8598 21.2758 18.6672C21.2758 18.4747 21.119 18.3185 20.9255 18.3185H9.50285Z" fill="#E1147B"/>
	<path d="M7.1903 20.2015C7.1903 20.0089 7.34717 19.8528 7.54069 19.8528H12.0957C12.2892 19.8528 12.4461 20.0089 12.4461 20.2015C12.4461 20.3941 12.2892 20.5502 12.0957 20.5502H7.54069C7.34717 20.5502 7.1903 20.3941 7.1903 20.2015Z" fill="#E1147B"/>
	<path d="M13.4272 19.8528C13.2337 19.8528 13.0768 20.0089 13.0768 20.2015C13.0768 20.3941 13.2337 20.5502 13.4272 20.5502H22.8876C23.0811 20.5502 23.238 20.3941 23.238 20.2015C23.238 20.0089 23.0811 19.8528 22.8876 19.8528H13.4272Z" fill="#E1147B"/>
	<path d="M8.66193 15.5987C8.66193 15.7913 8.50506 15.9474 8.31154 15.9474C8.11802 15.9474 7.96115 15.7913 7.96115 15.5987C7.96115 15.4061 8.11802 15.25 8.31154 15.25C8.50506 15.25 8.66193 15.4061 8.66193 15.5987Z" fill="#E1147B"/>
	<path d="M5.68364 17.4817C5.87716 17.4817 6.03403 17.3255 6.03403 17.133C6.03403 16.9404 5.87716 16.7843 5.68364 16.7843C5.49012 16.7843 5.33325 16.9404 5.33325 17.133C5.33325 17.3255 5.49012 17.4817 5.68364 17.4817Z" fill="#E1147B"/>
	<path d="M14.4783 21.7358C14.4783 21.9284 14.3215 22.0845 14.128 22.0845C13.9344 22.0845 13.7776 21.9284 13.7776 21.7358C13.7776 21.5432 13.9344 21.3871 14.128 21.3871C14.3215 21.3871 14.4783 21.5432 14.4783 21.7358Z" fill="#E1147B"/>
	<path d="M10.554 23.6187C10.7475 23.6187 10.9044 23.4626 10.9044 23.27C10.9044 23.0775 10.7475 22.9214 10.554 22.9214C10.3605 22.9214 10.2036 23.0775 10.2036 23.27C10.2036 23.4626 10.3605 23.6187 10.554 23.6187Z" fill="#E1147B"/>
	<path d="M8.66193 18.6672C8.66193 18.8598 8.50506 19.0159 8.31154 19.0159C8.11802 19.0159 7.96115 18.8598 7.96115 18.6672C7.96115 18.4747 8.11802 18.3185 8.31154 18.3185C8.50506 18.3185 8.66193 18.4747 8.66193 18.6672Z" fill="#E1147B"/>
	<path d="M6.34937 20.5502C6.54289 20.5502 6.69976 20.3941 6.69976 20.2015C6.69976 20.0089 6.54289 19.8528 6.34937 19.8528C6.15586 19.8528 5.99899 20.0089 5.99899 20.2015C5.99899 20.3941 6.15586 20.5502 6.34937 20.5502Z" fill="#E1147B"/>
	<path d="M21.1645 11.825C21.4463 12.5019 21.5913 13.2274 21.5913 13.96C21.5913 14.1141 21.4658 14.239 21.311 14.239H10.6592C10.5044 14.239 10.3789 14.1141 10.3789 13.96C10.3789 13.2274 10.5239 12.5019 10.8056 11.825C11.0874 11.1481 11.5003 10.533 12.0209 10.015C12.5415 9.49689 13.1595 9.08593 13.8397 8.80555C14.5199 8.52517 15.2489 8.38086 15.9851 8.38086C16.7213 8.38086 17.4503 8.52517 18.1305 8.80555C18.8107 9.08593 19.4287 9.49689 19.9493 10.015C20.4698 10.533 20.8828 11.1481 21.1645 11.825Z" fill="#53CBC7"/>
</svg>