<svg width="272" height="272" viewBox="0 0 272 272" fill="none" xmlns="http://www.w3.org/2000/svg">
<g clip-path="url(#clip0_1730_7927)">
<path d="M272 136C272 60.8893 211.111 0 136 0C60.8893 0 0 60.8893 0 136C0 211.111 60.8893 272 136 272C211.111 272 272 211.111 272 136Z" fill="white"/>
<path d="M56 208.837V62H88.0682L135.101 155.095L181.515 62H213.571V162.793H186.575V107.515L145.437 187.866H124.133L83.0082 107.515V208.837H56Z" fill="black"/>
<path d="M200.074 210.309C208.87 210.309 216 203.217 216 194.47C216 185.722 208.87 178.631 200.074 178.631C191.277 178.631 184.146 185.722 184.146 194.47C184.146 203.217 191.277 210.309 200.074 210.309Z" fill="#017AF0"/>
</g>
<defs>
<clipPath id="clip0_1730_7927">
<rect width="272" height="272" fill="white"/>
</clipPath>
</defs>
</svg>
