<svg xmlns="http://www.w3.org/2000/svg" width="24" height="20" viewBox="0 0 24 20" fill="none"><path d="M11.9848 0L9.26433 2.88379L11.9848 5.76757L14.7053 2.88379L11.9848 0Z" fill="#B8F2FA"></path><path d="M2.898 5.9762L0 3.03957V17.5285H3.42857V11.2805C5.45385 12.977 7.62841 14.4678 9.92388 15.7312C10.3609 15.9727 10.8089 16.2083 11.2677 16.4382C14.6745 18.1466 18.2881 19.3453 22.0051 20L22.3914 17.5285H24V6.61006H20.5714V15.9987C17.8688 15.3606 15.2394 14.4048 12.7323 13.1474L12.7316 13.1471C12.311 12.9365 11.9025 12.7215 11.5058 12.5023L11.5046 12.5017L11.5034 12.501C8.35811 10.7699 5.46067 8.57302 2.898 5.9762Z" fill="#B8F2FA"></path></svg>