<svg xmlns:xlink="http://www.w3.org/1999/xlink" xmlns="http://www.w3.org/2000/svg" version="1.0" width="128" height="128" viewBox="0 0 1024 1024" preserveAspectRatio="xMidYMid meet">
 <g fill="#a3faff">
  <path d="M0 512 l0 -512 512 0 512 0 0 512 0 512 -512 0 -512 0 0 -512z m513.7 403.9 c3 -1.1 8.8 -6.3 10.4 -9.2 0.6 -1 1.9 -5.1 3 -9.2 1 -4.1 3.2 -9.6 4.7 -12.2 3.5 -6 6.2 -6.5 14.6 -2.7 15.6 7.1 35.3 -0.3 43.3 -16.1 3.3 -6.5 6.3 -23.9 6.4 -37.5 0 -5.8 0.6 -20.1 1.2 -31.8 l1.2 -21.4 6.7 -2.3 c43.6 -15.2 79.2 -44.7 109.4 -90.5 22.7 -34.4 35.7 -72.7 34 -100 -1.3 -20.8 -9.2 -39.4 -22.2 -52.4 -14.8 -14.8 -33.6 -22 -57.4 -21.9 -11.5 0.1 -13.5 0.4 -24.5 3.8 -8.3 2.5 -17 6.3 -28.5 12.2 -40.9 21.3 -49.1 25.1 -64.8 30.2 -31 9.8 -43.1 11.5 -80.7 11.6 -42.6 0 -52.9 -2.1 -112 -22.7 -25.8 -9.1 -52.2 1.2 -69 26.7 -5.9 9 -10.6 21.4 -12.4 32.5 -7.1 43.8 24.5 96.3 82.4 136.7 24 16.7 49.3 29.7 78 40 l8 2.9 -0.1 3.9 c0 2.2 -0.5 8.9 -1.2 14.9 -0.7 6 -1.2 18.5 -1.2 27.7 0 25.5 2.5 35.5 11.4 44.7 7 7.4 10.2 8.5 23 8.1 l11 -0.4 0.9 4 c0.4 2.2 1.2 6.9 1.8 10.4 1.6 10.1 5.1 15.6 12.4 19.4 3.6 1.9 6.4 2.1 10.2 0.6z m-144.6 -485.5 c37.8 -6.1 67.4 -28.2 82.9 -61.8 8.5 -18.4 12.2 -36.9 12.3 -61.6 0.1 -16.2 -0.1 -18.3 -2.7 -28.5 -4.6 -17.6 -11.6 -30.5 -23 -42.4 -18.6 -19.3 -45.1 -30.4 -72.6 -30.4 -12.1 -0.1 -16.7 0.7 -32 5.5 -40.1 12.5 -66.1 38.4 -76.7 76.3 -2.7 9.5 -2.8 11 -2.7 30.5 0.1 21.2 1.1 29.4 5.6 45.9 10.3 37.7 33.8 60.5 68.8 66.5 15.9 2.7 23.7 2.7 40.1 0z m261.2 0 c12.7 -2.4 25.2 -7.3 39.1 -15.4 11.3 -6.5 18.2 -11.7 26.9 -20.3 29.7 -29.3 38.3 -66.7 25 -109.2 -9.2 -29.3 -29.6 -54.6 -56.3 -69.7 -18.8 -10.6 -44 -15.5 -64 -12.4 -13 2 -18.9 3.7 -31.3 8.8 -38.7 16 -61.8 50.7 -66.8 100.3 -1.9 19.3 -0.3 37 5.1 56 7.7 27.2 28 48 55.5 56.8 21.9 7 46.7 8.9 66.8 5.1z"/>
 </g>
 <g fill="#5c2929">
  <path d="M494.5 784.3 c-12.2 -0.7 -28.5 -2.6 -33.5 -3.8 -15.1 -3.6 -26.4 -7 -34.5 -10.2 -34.3 -13.6 -68.3 -34.5 -92 -56.5 -24.3 -22.5 -36.5 -39.3 -45.4 -62.2 -5.1 -13.2 -6.5 -22.9 -5.8 -41.5 0.7 -20.3 4.7 -31.8 15.6 -44.8 10.4 -12.5 23.7 -18.3 41.6 -18.3 11.3 0 12.8 0.4 41.6 10.3 33.2 11.5 53 15.6 79.9 16.4 34.9 1.1 68.1 -4.7 102 -17.7 7.9 -3 19.6 -8.9 54 -26.8 22.7 -11.8 36.2 -15 58 -13.8 14.1 0.8 22.2 2.6 32 7.3 14.1 6.7 26.9 22.8 31.7 39.5 2 7.4 2.9 33.4 1.3 43.9 -2.4 17.1 -7.3 31.8 -16.7 50.4 -7.6 15.2 -7.4 14.9 -13.6 24.4 -19 29.1 -46.9 57.3 -68.8 69.6 -14.2 7.9 -19.7 10.5 -22.5 10.5 -2.8 0 -3.3 -0.5 -4.9 -4.7 -5 -13.5 -13.9 -31.5 -21.9 -44.1 -2.9 -4.7 -18.5 -23 -23.7 -27.9 -8.9 -8.4 -34.6 -22.7 -46.4 -25.8 -10.5 -2.8 -18.2 -3 -25.8 -0.7 -9.8 2.9 -13.2 5.6 -17 13.2 -2.7 5.4 -3.2 7.6 -3.1 13 0.1 7.6 5 24.3 12 40.7 2.4 5.7 4.4 10.5 4.4 10.8 0 0.4 0.8 2.5 1.9 4.8 1 2.3 3.8 9.4 6.1 15.7 2.4 6.3 4.7 12.1 5.3 12.8 0.5 0.7 1.2 4.6 1.5 8.7 l0.5 7.5 -4.4 -0.2 c-2.4 -0.1 -6.6 -0.3 -9.4 -0.5z"/>
  <path d="M685.4 230.6 c-0.3 -0.8 -0.4 -2.6 -0.2 -4.1 l0.3 -2.6 4 4 3.9 4.1 -3.7 0 c-2.3 0 -4 -0.5 -4.3 -1.4z"/>
 </g>
 <g fill="#f6f6f6">
  <path d="M328.5 428.3 c-25.4 -5.6 -39.6 -13.8 -50.9 -29.2 -13.1 -17.9 -20.6 -47.5 -20.6 -81.6 0 -46.9 17.6 -77.3 55.4 -96 20 -9.9 35.4 -13 59.9 -12.2 26.7 0.8 44.2 7.6 62.5 24.3 18.8 17 28 42.8 26.9 75.4 -0.8 22.5 -2.6 34.6 -7.7 50.1 -6.7 20.5 -18.6 37.4 -34.3 49.1 -9.2 6.8 -22.9 13.7 -31.7 15.8 -16.9 4.2 -22.7 4.9 -40 4.9 -9.6 -0.1 -18.4 -0.3 -19.5 -0.6z m-21.8 -124.8 c1.9 -0.8 5.9 -1.5 8.7 -1.5 5.5 0 8.7 -1.2 6.6 -2.5 -0.7 -0.4 -1 -2.7 -0.9 -5.9 0.1 -2.8 -0.3 -6.1 -0.9 -7.3 -0.7 -1.2 -1.2 -3.2 -1.2 -4.4 0 -3.9 -2.8 -5.9 -8.1 -5.9 -3.7 0 -5.3 0.5 -6.9 2.2 -1.1 1.2 -2 2.5 -2 3 0 0.4 -1.8 2 -4 3.4 -2.2 1.5 -4 3.1 -4 3.7 0 0.6 1.1 2.5 2.5 4.3 1.4 1.8 2.5 4.6 2.5 6.3 0 2.5 2.1 6.1 3.6 6.1 0.3 0 2.1 -0.7 4.1 -1.5z"/>
  <path d="M582.5 427.5 c-26.2 -4.2 -42.1 -11.6 -55.1 -25.9 -7.3 -8 -14.1 -20.7 -17.4 -32.6 -9.7 -35 -4.5 -86.9 11.6 -114.3 12.8 -21.8 31.7 -36.3 57.4 -44.1 12.2 -3.6 19.6 -4.6 36.2 -4.6 20.1 0 33.9 3 49.2 10.7 19.3 9.7 38.7 30.3 48.3 51 7.2 15.7 9.8 25.9 11.2 44.9 2.4 31.4 -4.4 54.2 -22.3 74.9 -8.7 10.1 -12.9 13.8 -23.6 20.9 -14.8 9.8 -27.9 15.6 -43.7 19 -8.9 2 -39.8 2 -51.8 0.1z m84.9 -128.5 c2.3 0 4.7 -0.5 5.4 -1.2 1.9 -1.9 1.4 -5.3 -1.3 -7.8 -1.4 -1.3 -2.5 -3.4 -2.5 -4.6 0 -1.3 -0.6 -2.8 -1.2 -3.3 -7.9 -6.5 -7.7 -6.4 -10.2 -4.8 -1.3 0.9 -4.5 1.7 -7.2 1.9 l-4.9 0.3 -0.3 5 c-0.2 2.7 -0.8 5.5 -1.4 6.2 -1.5 1.8 -0.2 3.2 5.5 5.7 2.9 1.3 6.3 3.6 7.6 5.1 l2.4 2.8 1.9 -2.6 c1.6 -2.2 2.8 -2.7 6.2 -2.7z"/>
 </g>
 <g fill="#010101">
  <path d="M500.5 918.3 c-7.3 -3.8 -10.8 -9.3 -12.4 -19.4 -0.6 -3.5 -1.4 -8.1 -1.8 -10.3 l-0.8 -3.9 -11.2 0.2 c-12.9 0.2 -16 -0.9 -22.9 -8.1 -9.2 -9.5 -11.4 -18.9 -11.4 -47.7 0 -15.7 1.1 -35.1 2.3 -42.5 0.1 -0.5 -3.4 -2.3 -7.8 -3.9 -69.1 -25.1 -125.3 -69.3 -149.2 -117.2 -16.9 -33.7 -16.4 -71.2 1.2 -98 9.2 -14 20.1 -22.4 36 -28.1 3.7 -1.3 8.1 -1.8 17.5 -1.8 11.5 0 13.2 0.2 21.5 3.1 36.2 12.8 56.4 18.6 74.5 21.5 5.6 0.8 17.5 1.3 34.5 1.3 34.3 -0.1 47.4 -2 77.7 -11.6 15.7 -5.1 23.9 -8.9 64.8 -30.2 11.4 -5.9 20.2 -9.7 28.5 -12.3 11.4 -3.5 12.7 -3.7 27 -3.8 16.1 -0.1 24.8 1.3 36.5 5.9 39.6 15.5 56.4 61.2 41.5 113 -6 20.7 -15.7 41.5 -28.9 61.5 -30.2 45.8 -65.8 75.3 -109.4 90.5 l-6.7 2.3 -1.2 21.4 c-0.6 11.7 -1.2 26 -1.2 31.8 -0.1 13.6 -3.1 31 -6.4 37.5 -3.4 6.9 -11 13.7 -18.3 16.5 -4.6 1.9 -7.9 2.4 -15.4 2.4 -8.3 0.1 -10.2 -0.3 -15.3 -2.6 l-5.7 -2.7 -1.5 2.5 c-0.8 1.3 -2.2 3.5 -3 4.8 -0.8 1.3 -2.3 5.8 -3.4 10 -1.1 4.1 -2.4 8.3 -3 9.3 -1.6 2.9 -7.4 8.1 -10.4 9.2 -4.1 1.6 -12.7 1.3 -16.2 -0.6z m13.4 -13 c1.8 -1.9 3.3 -5.1 4.5 -9.7 5.4 -21.8 15.9 -29.3 30.3 -21.6 6.5 3.5 10.3 3.7 17.8 1.1 7.2 -2.6 11.6 -6.1 14.8 -12 4.4 -7.9 4.5 -9.1 7.4 -64.8 0.3 -6.2 0.4 -11.3 0.2 -11.3 -0.2 0 -9.8 1.9 -21.4 4.1 -42.8 8.4 -64.9 9.4 -98.7 4.3 -5.7 -0.8 -11.3 -1.7 -12.4 -2 -2.5 -0.6 -2.7 0.2 -4.4 16.6 -2.1 20.6 -0.6 40.6 3.7 50.3 1.9 4.2 4 6.9 7.2 9.4 4.5 3.4 4.8 3.5 11.6 2.9 3.9 -0.3 9.1 -0.8 11.6 -1.2 4.2 -0.5 4.8 -0.3 7.2 2.5 2.7 3.3 5.3 10.9 6.8 20.5 1.2 7 2 8.8 5.5 11.5 3.5 2.8 5 2.6 8.3 -0.6z m-9.3 -127.9 c-0.3 -2.6 -1 -5.2 -1.5 -5.8 -0.4 -0.6 -2.7 -6.3 -5.1 -12.6 -2.3 -6.3 -5.1 -13.4 -6.1 -15.7 -1.1 -2.3 -1.9 -4.4 -1.9 -4.8 0 -0.3 -2 -5.1 -4.4 -10.8 -2.4 -5.6 -6.1 -15.6 -8.2 -22.2 -3.3 -10.4 -3.8 -13.3 -3.9 -21.5 0 -8.7 0.3 -10.1 3.2 -16 3.9 -7.8 7 -10.1 17.9 -13.5 7.2 -2.2 8.6 -2.4 16.4 -1.5 4.7 0.5 11.2 1.7 14.5 2.5 11.7 3.1 37.4 17.4 46.4 25.8 5.2 4.9 20.8 23.2 23.7 27.9 8 12.6 16.9 30.6 21.9 44 l1.7 4.6 3.8 -1.6 c6.6 -3 21 -11.5 28.4 -16.9 19.2 -14.1 40.8 -37.7 56.3 -61.4 6.2 -9.5 6 -9.2 13.6 -24.4 9.4 -18.6 14.3 -33.3 16.8 -50.4 1.4 -10.1 0.7 -30.2 -1.5 -37.9 -4.6 -16.6 -17.5 -32.8 -31.6 -39.5 -18.2 -8.7 -42.4 -9.9 -62.9 -3.1 -4.2 1.4 -13.7 5.7 -21.1 9.6 -52.2 27.2 -59.9 30.5 -87.2 37.2 -24.9 6.1 -43.8 8 -71.7 7.3 -29.8 -0.7 -48.4 -4.4 -83 -16.4 -27 -9.3 -30.7 -10.3 -38.6 -10.3 -23.5 0 -44 16.9 -52 43 -2.2 7.5 -3.1 26.6 -1.6 37.1 2.9 19.7 15.4 43.6 33.1 63.2 23.5 25.9 54.7 48.8 88.2 64.6 21.5 10.2 32 13.9 55.8 19.6 5 1.2 21.3 3.1 33.5 3.8 2.8 0.2 5.6 0.4 6.4 0.5 1.1 0.2 1.2 -0.8 0.7 -4.4z m39.4 -2.3 c5.2 -1 13.6 -2.7 18.5 -3.6 21.5 -4.1 43.5 -10.8 43.5 -13.2 0 -2 -9 -21.8 -13.6 -29.9 -8.7 -15.6 -15.2 -24 -27.4 -35.7 -16.8 -16.2 -32.7 -24.8 -50.6 -27.7 -6.9 -1.1 -10.3 -0.5 -17.4 3 -4.3 2.2 -8.9 10.6 -8.9 16.5 -0.1 4.2 6.6 27.8 10 35.5 1.1 2.5 4.3 10.6 7 18 2.8 7.4 6.7 17.8 8.8 23 2.1 5.2 4.2 11.3 4.6 13.4 l0.6 3.9 7.7 -0.6 c4.2 -0.3 12 -1.5 17.2 -2.6z"/>
  <path d="M339.5 435.4 c-10 -1 -23.7 -3.9 -31 -6.7 -25.6 -9.6 -43.5 -31.8 -52 -64.4 -2.1 -8.2 -5.3 -26.6 -5.3 -31.3 -0.6 -29.7 -0.2 -34.9 3.4 -49 7.9 -30.3 28.4 -54.8 57.8 -68.5 19.6 -9.2 35.5 -13 54.1 -12.9 30.2 0.1 55.8 10.5 75.1 30.5 11.4 11.9 18.4 24.8 23 42.4 2.7 10.5 2.9 12 2.8 31.5 -0.1 17 -0.5 22.5 -2.4 32 -5.5 28 -14.8 46.8 -31.3 63.4 -20.6 20.7 -46.4 31.4 -79.7 32.9 -5.8 0.3 -12.3 0.3 -14.5 0.1z m32 -11.3 c17.3 -3.7 17 -3.6 31.2 -10.2 16.6 -7.9 33 -24.4 42.2 -42.8 8.5 -16.7 12.8 -36.8 13.7 -63.1 1 -29 -8.8 -55.1 -26.8 -71.4 -17.3 -15.8 -35.7 -23.4 -59.4 -24.3 -21 -0.9 -37.6 2.7 -57 12.2 -23.4 11.6 -39.1 27.9 -48.1 50.2 -13.7 34.1 -7.2 93.4 13.3 121.4 11.3 15.4 25.5 23.6 50.9 29.2 1.1 0.3 8.5 0.5 16.5 0.6 10.6 0 16.9 -0.5 23.5 -1.8z"/>
  <path d="M297.6 306.4 c-1.6 -1.6 -2 -2.7 -1.7 -5.6 0.1 -0.9 -1.2 -3.6 -2.8 -5.9 -3.8 -5.2 -3.9 -8.4 -0.5 -11.2 3.5 -2.9 6.5 -5.9 8.6 -8.5 1.6 -1.9 2.8 -2.2 9.6 -2.2 8.8 0 10.9 1.2 11.5 6.6 0.2 1.7 1.2 4.2 2.1 5.6 1.5 2.3 1.6 3.2 0.5 6.1 -1 2.9 -1 3.8 0.4 5.8 3.5 4.9 0.9 7.9 -6.7 7.9 -3 0 -7 0.7 -8.9 1.5 -4.7 1.9 -10.1 1.9 -12.1 -0.1z"/>
  <path d="M595.9 435 c-31 -2.4 -52.6 -10.8 -69.2 -26.9 -17.3 -16.7 -25.8 -39.2 -27.3 -72.1 -2.1 -45 10.6 -82.6 35.9 -106.7 20.6 -19.6 54.5 -31.6 84.2 -29.9 13.4 0.8 25.3 3.3 36.5 7.9 15.5 6.3 25.4 13 38.6 26.1 17.4 17.4 28.2 38.2 34 65.6 2.1 10.3 2.4 35.4 0.5 44.5 -4.6 21.2 -14.3 38.9 -29.8 54.2 -8.7 8.6 -15.6 13.8 -26.9 20.3 -25.1 14.6 -46.6 19.3 -76.5 17z m35.4 -10.6 c15.8 -3.4 28.9 -9.2 43.7 -19 10.7 -7.1 14.9 -10.8 23.6 -20.9 15.9 -18.4 22.5 -36.7 22.5 -62 -0.1 -32.8 -11.8 -61.5 -34 -83.5 -20.9 -20.8 -44 -30.3 -72.6 -29.9 -14.3 0.1 -21.1 1.1 -32.5 4.5 -25.7 7.8 -44.6 22.3 -57.4 44.1 -15.7 26.8 -20.8 74.7 -11.6 108.3 7.9 28.8 28.6 48.8 57.7 55.6 19.2 4.5 46.9 5.8 60.6 2.8z"/>
  <path d="M654.3 304.9 c-1.5 -1.7 -5.2 -4.2 -8.1 -5.5 -6.6 -3 -8.3 -6.1 -5.9 -10.7 1.2 -2.1 1.5 -4.3 1.1 -6.3 -0.9 -4.5 2.2 -7.5 7 -6.7 2.3 0.4 4.2 0 5.7 -1.1 1.3 -0.9 3.9 -1.6 5.7 -1.6 3.1 0 4.5 0.8 11 6.1 0.6 0.5 1.2 1.9 1.2 3.1 0 1.2 1.1 3.4 2.5 4.8 3.5 3.6 3.8 11.5 0.6 14.1 -1.6 1.3 -3.1 1.6 -5.2 1.2 -2.5 -0.5 -3.5 -0.1 -5.9 2.6 -3.6 3.9 -6.1 3.9 -9.7 0z"/>
 </g>
 <g fill="#00ff60">
  <path d="M501.5 907.7 c-2.5 -2.5 -3.5 -4.5 -4 -8.3 -0.4 -2.7 -1.4 -7.6 -2.2 -10.9 -3 -11.2 -6.2 -15.3 -10.7 -13.5 -1.5 0.5 -6.7 1 -11.5 1 -8.5 0 -9 -0.1 -13.3 -3.4 -9.3 -7.1 -12.6 -22.2 -11.5 -52.1 0.6 -14.3 1.9 -27.9 3.1 -31.2 0.4 -0.9 1.6 -0.8 4.8 0.2 5.9 1.7 23.7 4.3 37.8 5.4 11.2 0.9 27.6 0.2 42.5 -1.8 8.2 -1 46.4 -8.5 51.5 -10 1.9 -0.6 3.7 -1.1 3.9 -1.1 1 0 -2.4 66.2 -3.9 73.9 -1.3 6.9 -5.4 14.4 -9.7 17.7 -5 3.8 -13.3 6.4 -20.6 6.4 -5.2 0 -7.5 -0.6 -12.2 -3.1 -3.8 -2 -6.5 -2.9 -8 -2.5 -6.4 1.6 -12.9 11.4 -16.1 24.2 -2.3 9.2 -5.4 12.4 -11.9 12.4 -4 0 -5.2 -0.5 -8 -3.3z"/>
 </g>
 <g fill="#b64949">
  <path d="M515.5 777.4 c-0.4 -2.2 -2.5 -8.2 -4.6 -13.4 -2.1 -5.2 -6 -15.6 -8.8 -23 -2.7 -7.4 -5.9 -15.5 -7 -18 -1.1 -2.5 -3.8 -10.6 -6 -18 -3.2 -10.5 -4.1 -15.1 -4 -20.5 0.1 -21.4 17.1 -28.6 45 -19.2 14.1 4.8 24.4 11.4 37.9 24.4 12.2 11.7 18.7 20.1 27.4 35.7 5 8.7 15.6 32.6 15.6 35 0 2.7 -23.2 9.9 -45.5 14.1 -4.9 0.9 -13.3 2.6 -18.5 3.7 -5.2 1.1 -14.3 2.2 -20.2 2.5 l-10.7 0.6 -0.6 -3.9z"/>
 </g>
</svg>