<svg xmlns:xlink="http://www.w3.org/1999/xlink" xmlns="http://www.w3.org/2000/svg" width="40" height="40" viewBox="0 0 40 40" fill="none">
<g clip-path="url(#clip0_953_7515)">
<rect width="40" height="40" rx="8" fill="#FE0420"/>
<path d="M20 40C31.0457 40 40 31.0457 40 20C40 8.95431 31.0457 0 20 0C8.95431 0 0 8.95431 0 20C0 31.0457 8.95431 40 20 40Z" fill="white"/>
<path d="M14.4475 15.8483C14.0991 15.8819 13.7274 15.9858 13.4276 16.1313C12.3676 16.6489 11.6141 17.9099 11.3177 19.6582C11.1837 20.452 11.1335 21.445 11.2004 21.9742C11.3361 23.0578 11.8284 23.7075 12.6724 23.9135C13.0374 24.0023 13.57 24.0056 13.9685 23.9202C15.3232 23.6339 16.2845 22.3912 16.6746 20.4202C16.7349 20.112 16.8119 19.546 16.8538 19.0972C16.8956 18.6266 16.8923 17.9919 16.8438 17.6922C16.7583 17.1529 16.5742 16.7309 16.2912 16.4228C16.0266 16.133 15.6766 15.9489 15.2479 15.8735C15.0688 15.8416 14.6535 15.8283 14.4475 15.8483Z" fill="#FE0420"/>
<path d="M24.6235 17.4711C24.7856 16.5949 24.9125 15.9089 24.917 15.8938C24.9255 15.8669 24.999 15.8652 26.1679 15.8652C26.9717 15.8652 27.464 15.8719 27.5612 15.8837C27.9597 15.9322 28.3165 16.1014 28.5407 16.3459C28.7083 16.5285 28.8172 16.7278 28.8857 16.9789C28.9293 17.1347 28.936 17.5718 28.9009 17.8012C28.7535 18.7441 28.0769 19.4088 27.0572 19.6148C26.739 19.6785 26.548 19.6852 25.354 19.6735L24.2188 19.6618L24.2272 19.6182C24.2322 19.5948 24.3879 18.7524 24.572 17.7492L24.6235 17.4711Z" fill="#FE0420"/>
<path fill-rule="evenodd" clip-rule="evenodd" d="M19.3223 -5.71114C17.9021 -5.66257 16.6998 -5.54033 15.4204 -5.3109C10.9627 -4.51208 6.76287 -2.51924 3.31324 0.431499C2.74556 0.91715 2.46926 1.17337 1.8212 1.82146C1.02745 2.61693 0.548517 3.14611 -0.0677268 3.91646C-3.32311 7.97917 -5.26227 12.8926 -5.64407 18.0505C-5.7144 19.0001 -5.7345 20.4202 -5.69096 21.2408C-5.56201 23.5854 -5.19194 25.6518 -4.5221 27.7736C-3.58937 30.7311 -2.0655 33.5896 -0.131361 36.0079C0.898504 37.2974 2.10084 38.5384 3.33836 39.5951C7.46954 43.1185 12.644 45.2469 18.0496 45.6472C18.7713 45.7008 19.1514 45.7142 19.992 45.7142C20.8377 45.7142 21.2547 45.6991 21.9513 45.6472C27.114 45.2603 32.0088 43.3328 36.058 40.0941C36.835 39.4728 37.3776 38.9838 38.1797 38.1816C38.9734 37.3862 39.4523 36.8569 40.0686 36.0866C43.324 32.0239 45.2631 27.1105 45.6448 21.9525C45.7153 21.0029 45.7353 19.5829 45.6918 18.7624C45.5628 16.4178 45.1927 14.3512 44.523 12.2295C43.5901 9.27201 42.0663 6.41337 40.1321 3.99517C39.1023 2.70569 37.9 1.46476 36.6624 0.408053C33.7118 -2.10896 30.1751 -3.94437 26.4224 -4.90898C24.7411 -5.34104 23.1268 -5.58554 21.2814 -5.6877C20.9583 -5.70611 19.627 -5.72118 19.3223 -5.71114ZM15.5796 13.8639C16.514 13.9744 17.2808 14.2809 17.934 14.8068C18.6741 15.4012 19.2134 16.3608 19.4294 17.4611C19.6721 18.7004 19.5231 20.2728 19.0274 21.6762C18.2873 23.7678 16.7166 25.2818 14.7674 25.7791C14.2114 25.9215 13.8279 25.9684 13.21 25.9684C12.7193 25.9701 12.4564 25.9465 12.0562 25.8695C10.2359 25.5145 9.01352 24.2585 8.63003 22.3461C8.5396 21.8972 8.52119 21.6745 8.52119 21.0565C8.52286 20.4469 8.53793 20.2544 8.63003 19.7035C8.81256 18.6216 9.1592 17.6486 9.64984 16.8398C10.7467 15.0312 12.4096 13.9895 14.4374 13.8388C14.7071 13.8187 15.3066 13.8321 15.5796 13.8639ZM27.8458 13.8639C29.008 13.9744 29.9021 14.3614 30.5854 15.0479C31.0777 15.5419 31.3624 16.1129 31.483 16.8448C31.5231 17.0961 31.5231 17.6938 31.483 17.9919C31.3524 18.9281 30.989 19.6599 30.3426 20.2812C29.6326 20.9645 28.6948 21.4132 27.5863 21.5992C27.0018 21.6979 26.9248 21.7014 25.3223 21.6979C24.4464 21.6946 23.852 21.6996 23.852 21.7096C23.852 21.7231 23.1151 25.7188 23.08 25.8914L23.0633 25.9801H20.4827L20.4927 25.9248C20.4944 25.9154 20.5496 25.6145 20.6443 25.0976L20.647 25.0832C20.8407 24.0262 21.197 22.0831 21.5997 19.8844C22.2024 16.5919 22.6998 13.879 22.7048 13.8572L22.7148 13.817L25.1547 13.8287C27.0688 13.8371 27.6483 13.8455 27.8458 13.8639Z" fill="#FE0420"/>
</g>
<defs>
<clipPath id="clip0_953_7515">
<rect width="40" height="40" rx="8" fill="white"/>
</clipPath>
</defs>
</svg>