<svg width="100" height="100" viewBox="0 0 100 100" fill="none" xmlns="http://www.w3.org/2000/svg">
<path fill-rule="evenodd" clip-rule="evenodd" d="M37.4998 11.3407C31.4383 11.3407 26.2564 15.6726 25.2231 21.6036L14.4786 83.2795C14.0894 85.5133 15.8216 87.5568 18.1047 87.5568C19.8971 87.5568 21.473 86.2671 21.8075 84.4692C21.9694 83.5991 22.1352 82.7095 22.3024 81.8126C23.2799 76.5704 24.3071 71.0618 24.9 67.4897C25.2776 65.2153 26.5968 58.8243 28.1648 54.7226C30.4337 47.8937 34.1596 42.9404 37.8453 39.648C39.6911 37.9991 41.5636 36.7337 43.2923 35.8525C44.8278 35.0697 46.8483 34.2801 48.8696 34.2801C53.4025 34.2801 57.4662 36.5868 60.3623 38.9933C63.3443 41.4712 65.9369 44.7483 67.4005 48.0532C67.8764 49.1277 68.2513 50.2292 68.5333 51.1587C71.7543 50.098 74.79 48.8082 77.3449 47.3125C80.433 45.5048 82.4289 43.6246 83.4387 41.8562C87.3089 35.0779 85.9716 27.8511 81.023 21.8234C75.9692 15.6681 67.4815 11.3407 58.5626 11.3407H37.4998ZM77.2578 60.0064C79.2941 59.1457 81.2798 58.1738 83.1449 57.082C87.1516 54.7364 91.0013 51.6042 93.3736 47.4497C100.042 35.7709 97.1406 23.5065 89.8745 14.6572C82.7137 5.93548 71.0105 0 58.5626 0H37.4998C25.8819 0 15.9499 8.30283 13.9696 19.6705L3.22499 81.3467C1.62797 90.5135 8.73579 98.8972 18.1047 98.8972C25.4533 98.8972 31.7121 93.658 33.0381 86.5298C33.1973 85.6743 33.3613 84.7945 33.5276 83.9024C34.5023 78.676 35.5555 73.0282 36.1687 69.3343C36.5154 67.2458 37.7124 61.6511 38.8745 58.6633C38.9113 58.5687 38.9455 58.4732 38.9772 58.3768C40.5812 53.4873 43.1638 50.1513 45.4834 48.0792C46.6529 47.0345 47.7198 46.3433 48.5082 45.9414C48.8186 45.7832 49.0383 45.6929 49.1717 45.6436C49.9779 45.7554 51.3577 46.2986 53.0331 47.6907C54.8553 49.2048 56.2827 51.1205 56.9461 52.6184C57.408 53.6615 57.5414 54.1828 57.7333 54.932C57.854 55.4035 57.9979 55.9653 58.2612 56.8043C58.9516 59.0034 60.0477 61.0329 62.3896 63.3581C64.2179 65.1734 66.0189 66.3651 67.5361 67.3006C67.9263 67.5411 68.2778 67.7541 68.6018 67.9503C69.6203 68.5672 70.365 69.0183 71.1738 69.64C73.3469 71.3105 75.0914 73.5393 75.7025 75.4271C76.0917 76.6294 76.1375 78.4127 75.6435 80.4127C75.1495 82.4127 74.2595 84.0415 73.4417 84.9417C70.4187 88.2708 64.9022 89.0782 60.8682 88.496C57.7473 88.0447 54.8493 90.1923 54.3954 93.2912C53.9415 96.3902 56.1035 99.268 59.2244 99.7185C64.9391 100.544 75.1978 99.9429 81.9234 92.5366C84.2537 89.9703 85.8897 86.5395 86.7356 83.1145C87.5816 79.6891 87.7814 75.6821 86.5751 71.9565C85.0364 67.2024 81.4865 63.2257 78.1649 60.6723C77.8646 60.4415 77.5608 60.2195 77.2578 60.0064Z" fill="url(#paint0_linear_2144_25)"/>
<defs>
<linearGradient id="paint0_linear_2144_25" x1="21.6157" y1="9.27879" x2="85.1809" y2="91.4652" gradientUnits="userSpaceOnUse">
<stop stop-color="#6B59DF" stop-opacity="0.67"/>
<stop offset="0.523857" stop-color="#3EBAD9" stop-opacity="0.67"/>
<stop offset="1" stop-color="#C692F9" stop-opacity="0.79"/>
</linearGradient>
</defs>
</svg>
