<svg width="100" height="100" viewBox="0 0 100 100" fill="none" xmlns="http://www.w3.org/2000/svg">
<g clip-path="url(#clip0_2144_24)">
<path d="M0 4.2369C0 3.25047 1.36274 2.90868 1.83742 3.77316C5.31372 10.1044 12.8912 22.9629 17.2131 23.1988C22.8457 23.5062 74.9178 23.2103 76.8215 23.1992C76.8819 23.1988 76.9055 23.1988 76.9662 23.1992C89.6957 23.2464 100 33.1929 100 45.4558V77.7433C100 90.0353 89.6465 100 76.875 100H23.1254C10.3535 100 0 90.0353 0 77.7433V4.2369Z" fill="#FC774B"/>
<path d="M21.3104 99.8119C21.3104 91.4284 27.2798 84.8206 36.2442 84.8206C45.2081 84.8206 90.6349 85.155 94.2825 84.8206C97.93 84.4861 100.117 80.5391 99.9941 82.5213C99.5812 89.2016 89.1517 99.9999 81.0023 99.9999L21.3104 99.8119Z" fill="#FFCEBD"/>
<path d="M73.7052 49.1807C74.7505 49.1807 75.6204 50.0231 75.3643 51.0158C75.2498 51.4595 75.0937 51.8949 74.8973 52.3172C74.4348 53.3119 73.7569 54.2154 72.9019 54.9766C72.047 55.7375 71.0325 56.3415 69.9157 56.7534C68.7988 57.1652 67.6018 57.3772 66.393 57.3772C65.1842 57.3772 63.9872 57.1652 62.8704 56.7534C61.7539 56.3415 60.739 55.7375 59.8841 54.9766C59.0296 54.2154 58.3516 53.3119 57.8888 52.3172C57.6924 51.8949 57.5363 51.4595 57.4218 51.0158C57.1657 50.0231 58.0359 49.1807 59.0813 49.1807C60.1266 49.1807 60.9423 50.0446 61.3653 50.9811C61.3726 50.9963 61.3795 51.0119 61.3864 51.0272C61.6588 51.6125 62.0581 52.1448 62.5612 52.5927C63.0643 53.0406 63.6618 53.3962 64.3193 53.6388C64.9767 53.8813 65.6814 54.0062 66.393 54.0062C67.1046 54.0062 67.8093 53.8813 68.4668 53.6388C69.1243 53.3962 69.7217 53.0409 70.2248 52.5927C70.7283 52.1448 71.1273 51.6125 71.3996 51.0272C71.4066 51.0119 71.4138 50.9963 71.4208 50.9811C71.8437 50.0446 72.6594 49.1807 73.7052 49.1807Z" fill="#1F1C1B"/>
<path d="M73.7708 3.78392C73.7708 1.69412 75.3917 0 77.3916 0H93.1008C95.1006 0 96.7216 1.69412 96.7216 3.78392V27.2166C96.7216 27.805 96.0003 28.092 95.6138 27.6635C94.1548 26.046 91.4614 23.3099 88.8075 21.9179C86.3351 20.6209 80.9878 20.1373 77.3833 19.9572C75.3876 19.8573 73.7708 18.1586 73.7708 16.0706V3.78392Z" fill="#FC774B"/>
</g>
<defs>
<clipPath id="clip0_2144_24">
<rect width="100" height="100" fill="white"/>
</clipPath>
</defs>
</svg>
