<svg width="35" height="34" viewBox="0 0 35 34" fill="none" xmlns="http://www.w3.org/2000/svg">
<rect width="35" height="34" fill="#1E1E1E"/>
<g clip-path="url(#clip0_0_1)">
<mask id="mask0_0_1" style="mask-type:luminance" maskUnits="userSpaceOnUse" x="1" y="0" width="132" height="34">
<path d="M1 0H133V34H1V0Z" fill="white"/>
</mask>
<g mask="url(#mask0_0_1)">
<mask id="mask1_0_1" style="mask-type:luminance" maskUnits="userSpaceOnUse" x="1" y="0" width="34" height="34">
<path d="M1 0.337997H34.323V33.66H1V0.337997Z" fill="white"/>
</mask>
<g mask="url(#mask1_0_1)">
<mask id="mask2_0_1" style="mask-type:luminance" maskUnits="userSpaceOnUse" x="1" y="0" width="34" height="34">
<path d="M1 0.337997H34.323V33.66H1V0.337997Z" fill="white"/>
</mask>
<g mask="url(#mask2_0_1)">
<path d="M20.968 1.664L21.855 3.741C23.5957 7.81905 26.844 11.0673 30.922 12.808L32.999 13.695C33.543 13.927 33.984 14.259 34.325 14.655C33.291 7.238 27.425 1.372 20.008 0.337997C20.403 0.677997 20.736 1.12 20.968 1.664ZM2.326 13.695L4.403 12.808C8.48125 11.0673 11.7298 7.81905 13.471 3.741L14.357 1.664C14.5709 1.15414 14.8994 0.70041 15.317 0.337997C7.9 1.372 2.034 7.238 1 14.655C1.34 14.259 1.782 13.927 2.326 13.695ZM33 20.304L30.922 21.191C26.8438 22.9319 23.5954 26.1806 21.855 30.259L20.968 32.335C20.7542 32.8452 20.4257 33.2993 20.008 33.662C27.425 32.627 33.291 26.761 34.325 19.344C33.9628 19.7618 33.51 20.0904 33 20.304ZM14.357 32.335L13.471 30.259C11.73 26.1806 8.48137 22.932 4.403 21.191L2.326 20.304C1.81597 20.0904 1.36217 19.7618 1 19.344C2.034 26.761 7.9 32.627 15.317 33.662C14.8996 33.2991 14.5711 32.845 14.357 32.335Z" fill="#999999"/>
</g>
<path d="M10.103 15.371L11.126 14.934C13.1358 14.0763 14.7368 12.4756 15.595 10.466L16.031 9.442C16.643 8.009 18.676 8.009 19.288 9.442L19.724 10.466C20.5822 12.4756 22.1832 14.0763 24.193 14.934L25.217 15.371C26.65 15.983 26.65 18.015 25.217 18.627L24.193 19.064C22.1829 19.9218 20.5818 21.5229 19.724 23.533L19.288 24.556C18.676 25.989 16.643 25.989 16.031 24.556L15.595 23.533C14.7372 21.5229 13.1361 19.9218 11.126 19.064L10.103 18.627C8.669 18.015 8.669 15.983 10.103 15.371Z" fill="black"/>
</g>
</g>
</g>
<defs>
<clipPath id="clip0_0_1">
<rect width="132" height="34" fill="white" transform="translate(1)"/>
</clipPath>
</defs>
</svg>
