<svg width="18" height="18" viewBox="0 0 18 18" fill="none" xmlns="http://www.w3.org/2000/svg">
<path fill-rule="evenodd" clip-rule="evenodd" d="M16.1865 11.0007L13.2606 14.9815C12.8346 15.562 12.0036 15.8176 10.9455 15.7348C9.47531 15.6103 7.52228 14.8501 5.65456 13.5441C5.0455 13.1233 4.47012 12.6582 3.93334 12.1528C2.94365 11.2174 2.21622 10.2443 1.82668 9.37657C1.40062 8.42291 1.38653 7.57983 1.81259 6.99934L4.74545 3.01852C5.17166 2.43804 5.99545 2.18237 7.06075 2.26524C8.53091 2.38275 10.4768 3.1499 12.3515 4.44917C14.2194 5.75536 15.5901 7.3103 16.1724 8.62343C16.2227 8.73608 16.2673 8.8471 16.3061 8.9565C16.5956 9.7726 16.5623 10.4887 16.1865 11.0007Z" fill="url(#paint0_linear_4226_14225)"/>
<path fill-rule="evenodd" clip-rule="evenodd" d="M15.7178 8.81683C15.1568 7.56593 13.8428 6.09385 12.0533 4.84987C10.2707 3.6059 8.41722 2.86647 7.01813 2.75589C6.16585 2.68674 5.49116 2.8389 5.1504 3.30187L5.13601 3.32944C4.81646 3.79256 4.88752 4.44912 5.22131 5.19548C5.78237 6.45332 7.09616 7.92524 8.87888 9.16922C10.6613 10.4132 12.5149 11.1528 13.9139 11.2634C14.7519 11.3254 15.4125 11.1804 15.7604 10.745L15.7818 10.7104C16.1227 10.2543 16.0516 9.57705 15.7178 8.81683ZM13.0972 8.84455C12.941 9.05864 12.6215 9.12101 12.2309 9.08636C11.5277 9.03107 10.6045 8.65789 9.70964 8.03597C8.81479 7.41391 8.15434 6.68127 7.87737 6.05242C7.72116 5.70003 7.67858 5.38907 7.83479 5.17469C7.99116 4.96046 8.3107 4.89824 8.70828 4.92596C9.40419 4.98818 10.3346 5.35443 11.2224 5.97649C12.1172 6.5984 12.7777 7.33783 13.0546 7.96682C13.218 8.31921 13.2606 8.63017 13.0972 8.84455Z" fill="white"/>
<defs>
<linearGradient id="paint0_linear_4226_14225" x1="6.59206" y1="2.08683" x2="11.1772" y2="15.9905" gradientUnits="userSpaceOnUse">
<stop stop-color="#27B0E6"/>
<stop offset="0.107" stop-color="#49A1DB"/>
<stop offset="0.288" stop-color="#7D8ACA"/>
<stop offset="0.445" stop-color="#A279BD"/>
<stop offset="0.572" stop-color="#BA6FB6"/>
<stop offset="0.651" stop-color="#C26BB3"/>
<stop offset="0.678" stop-color="#D563AD"/>
<stop offset="0.715" stop-color="#E65BA7"/>
<stop offset="0.76" stop-color="#F156A3"/>
<stop offset="0.824" stop-color="#F853A1"/>
<stop offset="1" stop-color="#FA52A0"/>
</linearGradient>
</defs>
</svg>
