<svg width="14" height="15" viewBox="0 0 14 15" fill="none" xmlns="http://www.w3.org/2000/svg">
<g id="Frame 9">
<g id="Group">
<path id="Vector" d="M7.00048 14.4978C3.17381 14.509 -0.104053 11.3655 0.000480391 7.29245C0.0900804 3.65991 3.09915 0.389514 7.22821 0.501514C10.8346 0.59858 14.1199 3.59271 13.993 7.75538C13.8847 11.3842 10.9018 14.4866 7.00048 14.4978ZM7.47461 8.10258C7.67621 8.27805 7.90395 8.42738 8.07568 8.64018C8.35568 8.98738 8.49381 9.36818 8.38928 9.81991C8.23621 10.4695 7.54181 11.1228 6.82501 11.1639C6.43675 11.1863 6.06715 11.1154 5.74608 10.8951C5.08901 10.4434 4.81275 9.58471 5.05915 8.82685C5.14875 8.55431 5.14875 8.55431 5.39888 8.67005C5.40261 8.67378 5.40635 8.67378 5.41008 8.67751C5.49968 8.72978 5.52208 8.69245 5.51835 8.60285C5.50341 8.37138 5.50715 8.13618 5.48101 7.90471C5.45488 7.68445 5.46981 7.46045 5.42128 7.24391C5.37648 7.24018 5.35035 7.27005 5.32048 7.28871C4.99568 7.50151 4.67461 7.71431 4.35355 7.92711C4.16315 8.05405 4.16315 8.05778 4.37595 8.15858C4.46928 8.20338 4.49541 8.24071 4.44688 8.34525C4.23781 8.80818 4.17808 9.29351 4.26021 9.79378C4.38341 10.533 4.73435 11.1266 5.37275 11.541C5.91035 11.8919 6.50768 11.9778 7.12741 11.877C7.84421 11.7575 8.37808 11.3431 8.77755 10.7532C9.39355 9.83858 9.28155 8.80445 8.51621 8.01298C7.98981 7.47165 7.29541 7.21031 6.66821 6.83698C6.52635 6.72498 6.38448 6.60925 6.26501 6.47111C5.94768 6.10898 5.80581 5.69831 5.91781 5.21671C5.98875 4.91058 6.14928 4.64925 6.35461 4.41405C7.03035 3.63751 7.95995 3.60018 8.66181 4.15645C9.10235 4.50738 9.52421 5.23911 9.19195 6.12765C9.09115 6.39645 9.09861 6.40018 8.84475 6.28818C8.84101 6.28445 8.83728 6.28445 8.83355 6.28071C8.76635 6.23965 8.74395 6.25458 8.74768 6.33298C8.76261 6.56445 8.77008 6.79965 8.78501 7.03111C8.79995 7.26631 8.82608 7.50151 8.84848 7.75165C9.19941 7.52018 9.53915 7.29618 9.87515 7.07218C9.94608 7.02365 10.0693 6.99751 10.0655 6.91538C10.0618 6.85191 9.93488 6.82578 9.86021 6.79591C9.74075 6.75111 9.72955 6.69138 9.78181 6.57565C10.1178 5.80285 10.1327 5.03378 9.69595 4.29458C9.18821 3.43218 8.42661 3.02525 7.42235 3.08125C6.91461 3.10738 6.48901 3.33511 6.11568 3.65618C5.60048 4.09671 5.25328 4.63805 5.18235 5.32125C5.10021 6.10151 5.43621 6.71378 6.00741 7.21778C6.43301 7.59858 6.97061 7.81885 7.47461 8.10258Z" fill="#E9EBFE"/>
<path id="Vector_2" d="M6.65696 6.82941C7.28416 7.20274 7.98229 7.46407 8.50496 8.00541C9.27029 8.79687 9.38229 9.83101 8.76629 10.7457C8.36683 11.3355 7.83296 11.7499 7.11616 11.8694C6.49643 11.9702 5.90283 11.8806 5.36149 11.5334C4.72683 11.119 4.37216 10.5254 4.24896 9.78621C4.16683 9.28594 4.22656 8.80061 4.43563 8.33767C4.48416 8.23314 4.45803 8.19581 4.3647 8.15101C4.1519 8.05021 4.15563 8.04647 4.3423 7.91954C4.66336 7.70674 4.98816 7.49394 5.30923 7.28114C5.3391 7.26247 5.36523 7.22887 5.41003 7.23634C5.45856 7.45287 5.44736 7.67687 5.46976 7.89714C5.4959 8.12861 5.4959 8.36007 5.5071 8.59527C5.51083 8.68487 5.48843 8.72221 5.39883 8.66994C5.39509 8.66621 5.39136 8.66621 5.38763 8.66247C5.13749 8.54674 5.1375 8.54674 5.0479 8.81927C4.8015 9.58087 5.07776 10.4358 5.73483 10.8875C6.05589 11.1078 6.4255 11.1787 6.81376 11.1563C7.5343 11.119 8.22496 10.4619 8.37803 9.81234C8.48629 9.36061 8.34816 8.97981 8.06443 8.63261C7.8927 8.41981 7.66496 8.27047 7.46336 8.09501C7.39243 7.87101 7.22816 7.70674 7.1087 7.51634C6.97056 7.28861 6.78016 7.08327 6.65696 6.82941Z" fill="#8C8EF9"/>
<path id="Vector_3" d="M6.65666 6.82925C6.77986 7.07938 6.97026 7.28845 7.1196 7.52365C7.2428 7.71405 7.40333 7.87831 7.47426 8.10231C6.97026 7.81858 6.43266 7.60205 5.99213 7.21378C5.42093 6.70978 5.08493 6.09752 5.16706 5.31725C5.238 4.63405 5.5852 4.08898 6.1004 3.65218C6.47746 3.33112 6.90306 3.10712 7.40706 3.07725C8.41133 3.02125 9.17293 3.43192 9.68066 4.29058C10.1175 5.02978 10.1063 5.79885 9.76653 6.57165C9.71426 6.68738 9.72546 6.74712 9.84493 6.79192C9.9196 6.82178 10.0465 6.84792 10.0503 6.91138C10.054 6.99352 9.9308 7.02338 9.85986 7.06818C9.52386 7.29218 9.18786 7.51618 8.8332 7.74765C8.8108 7.49752 8.78466 7.26231 8.76973 7.02712C8.7548 6.79565 8.74733 6.56045 8.7324 6.32898C8.72866 6.25058 8.75106 6.23565 8.81826 6.27672C8.822 6.28045 8.82573 6.28045 8.82946 6.28418C9.08333 6.39618 9.07586 6.39245 9.17666 6.12365C9.50893 5.23512 9.08706 4.50338 8.64653 4.15245C7.94466 3.59245 7.01506 3.63352 6.33933 4.41005C6.134 4.64525 5.97346 4.90658 5.90253 5.21272C5.79053 5.69432 5.9324 6.10498 6.24973 6.46711C6.37293 6.60525 6.5148 6.71725 6.65666 6.82925Z" fill="#51559C"/>
</g>
</g>
</svg>
