<svg width="24" height="24" viewBox="0 0 24 24" fill="none" xmlns="http://www.w3.org/2000/svg">
<path d="M12 2C17.5226 2 22 6.4774 22 12C22 17.5226 17.5224 22 12 22C6.4776 22 2 17.5238 2 12C2 6.4762 6.4768 2 12 2Z" fill="#53AE94"/>
<path d="M13.2344 10.6675V9.17993H16.6362V6.91333H7.37295V9.17993H10.7752V10.6663C8.01015 10.7933 5.93115 11.3409 5.93115 11.9969C5.93115 12.6529 8.01115 13.2005 10.7752 13.3283V18.0933H13.2352V13.3279C15.9952 13.2005 18.07 12.6533 18.07 11.9979C18.07 11.3425 15.9952 10.7953 13.2352 10.6679M13.2352 12.9243V12.9231C13.1658 12.9275 12.8092 12.9489 12.0152 12.9489C11.3804 12.9489 10.9338 12.9309 10.7764 12.9227V12.9247C8.33355 12.8165 6.51015 12.3911 6.51015 11.8821C6.51015 11.3731 8.33375 10.9483 10.7764 10.8399V12.5009C10.9364 12.5119 11.394 12.5389 12.0256 12.5389C12.7842 12.5389 13.1656 12.5073 13.2356 12.5009V10.8399C15.6736 10.9485 17.4928 11.3743 17.4928 11.8815C17.4928 12.3887 15.6724 12.8145 13.2352 12.9231" fill="white"/>
</svg>
