<svg width="24" height="24" viewBox="0 0 24 24" fill="none" xmlns="http://www.w3.org/2000/svg">
<path d="M12 22C17.5228 22 22 17.5228 22 12C22 6.47715 17.5228 2 12 2C6.47715 2 2 6.47715 2 12C2 17.5228 6.47715 22 12 22Z" fill="#FCFC03"/>
<path d="M9.40573 10.8932L9.6789 10.0508L8.2872 9.03306L7.49153 11.4751L8.87576 12.492L8.87333 12.4995H15.1026L14.5027 14.3491H6.58056L6.04826 15.9905H13.9704L16.0431 14.9593L17.0619 11.8182L15.7799 10.8765L9.40573 10.8932Z" fill="black"/>
<path d="M10.4382 7.41894L8.2872 9.03306L17.7784 9.03611L18.3027 7.41894H10.4382Z" fill="black"/>
<path d="M10.6125 18.7857L15.1097 4.80846H13.5153L9.06551 18.7857H10.6125Z" fill="black"/>
</svg>
