<svg width="65" height="66" viewBox="0 0 65 66" fill="none" xmlns="http://www.w3.org/2000/svg">
<g clip-path="url(#clip0_1897_44166)">
<mask id="mask0_1897_44166" style="mask-type:alpha" maskUnits="userSpaceOnUse" x="0" y="0" width="65" height="66">
<path d="M0 6.10352e-05H65V66H0V6.10352e-05Z" fill="white"/>
</mask>
<g mask="url(#mask0_1897_44166)">
<path fill-rule="evenodd" clip-rule="evenodd" d="M32.5 6.10352e-05C50.4496 6.10352e-05 65 14.7743 65 33.0001C65 51.2243 50.4496 66.0001 32.5 66.0001C14.5504 66.0001 0 51.2243 0 33.0001C0 14.7743 14.5504 6.10352e-05 32.5 6.10352e-05Z" fill="#2775CA"/>
</g>
<path fill-rule="evenodd" clip-rule="evenodd" d="M26.4075 55.9439C26.4075 56.7202 25.8089 57.1612 25.0695 56.9268C15.243 53.7438 8.11853 44.3879 8.11853 33.3487C8.11853 22.3098 15.243 12.9536 25.0695 9.77056C25.8089 9.53769 26.4075 9.97719 26.4075 10.7534V12.6697C26.4075 13.1864 26.0131 13.7947 25.5282 13.9631C17.7537 16.8618 12.1844 24.4454 12.1844 33.3356C12.1844 42.2257 17.7537 49.8108 25.5282 52.7081C26.0131 52.8896 26.4075 53.4843 26.4075 54.0029V55.9439Z" fill="white"/>
<path fill-rule="evenodd" clip-rule="evenodd" d="M34.5265 48.8131C34.5265 49.3831 34.0678 49.8489 33.5072 49.8489H31.4804C30.9197 49.8489 30.461 49.3831 30.461 48.8131V45.5525C26.0255 44.9446 23.8595 42.4205 23.273 38.9915C23.1707 38.4084 23.6294 37.8781 24.2159 37.8781H26.5356C27.0197 37.8781 27.4278 38.228 27.5298 38.7189C27.9633 40.7638 29.123 42.3298 32.6784 42.3298C35.3039 42.3298 37.1653 40.8414 37.1653 38.6165C37.1653 36.3898 36.0688 35.549 32.2197 34.9014C26.5356 34.1251 23.8466 32.3776 23.8466 27.8484C23.8466 24.3545 26.4469 21.6373 30.474 21.0545V17.858C30.474 17.2884 30.933 16.8223 31.4933 16.8223H33.5201C34.0807 16.8223 34.5394 17.2884 34.5394 17.858V21.1453C37.8149 21.7415 39.8923 23.6296 40.5682 26.7613C40.6952 27.3575 40.2365 27.9129 39.6379 27.9129H37.4962C37.0375 27.9129 36.6553 27.602 36.5153 27.1494C35.9417 25.1574 34.5394 24.3035 32.1049 24.3035C29.4159 24.3035 28.0265 25.6231 28.0265 27.4734C28.0265 29.4275 28.8172 30.4104 32.9469 31.0198C38.5284 31.796 41.4095 33.4134 41.4095 38.2415C41.4095 41.9034 38.7327 44.867 34.5394 45.5525V48.8131H34.5265Z" fill="white"/>
<path fill-rule="evenodd" clip-rule="evenodd" d="M39.9304 56.927C39.1918 57.1613 38.5924 56.7203 38.5924 55.9441V54.0293C38.5924 53.4597 38.9366 52.9295 39.4718 52.7345C47.2463 49.8357 52.8156 42.2521 52.8156 33.362C52.8156 24.4718 47.2463 16.8882 39.4718 13.9895C38.9876 13.808 38.5924 13.2132 38.5924 12.6946V10.7798C38.5924 10.0036 39.1918 9.55096 39.9304 9.79546C49.7569 12.9803 56.8814 22.3362 56.8814 33.3751C56.8692 44.3877 49.7569 53.7308 39.9304 56.927Z" fill="white"/>
</g>
<defs>
<clipPath id="clip0_1897_44166">
<rect width="65" height="66" fill="white"/>
</clipPath>
</defs>
</svg>
