<svg width="66" height="66" viewBox="0 0 66 66" fill="none" xmlns="http://www.w3.org/2000/svg">
<g clip-path="url(#clip0_1897_44159)">
<path d="M65.9412 32.9884C65.9412 51.1236 51.2406 65.8242 33.1054 65.8242C14.9708 65.8242 0.269531 51.1236 0.269531 32.9884C0.269531 14.8535 14.9708 0.152557 33.1054 0.152557C51.2406 0.152557 65.9412 14.8535 65.9412 32.9884Z" fill="#1BA27A"/>
<path d="M48.5159 16.7103H17.4237V24.2166H29.2167V35.2494H36.723V24.2166H48.5159V16.7103Z" fill="white"/>
<path d="M33.0417 36.4248C23.2862 36.4248 15.377 34.8808 15.377 32.976C15.377 31.0715 23.2859 29.5273 33.0417 29.5273C42.7972 29.5273 50.7061 31.0715 50.7061 32.976C50.7061 34.8808 42.7972 36.4248 33.0417 36.4248ZM52.8762 33.551C52.8762 31.0948 43.9961 29.104 33.0417 29.104C22.0877 29.104 13.2069 31.0948 13.2069 33.551C13.2069 35.7139 20.0929 37.5159 29.2177 37.9152V53.7532H36.7233V37.9214C45.9183 37.5346 52.8762 35.725 52.8762 33.551Z" fill="white"/>
</g>
<defs>
<clipPath id="clip0_1897_44159">
<rect width="66" height="66" fill="white"/>
</clipPath>
</defs>
</svg>
