<svg width="24" height="24" viewBox="0 0 24 24" fill="none" xmlns="http://www.w3.org/2000/svg">
<path d="M22 12C22 17.52 17.52 22 12 22C6.48 22 2 17.52 2 12C2 6.48 6.48 2 12 2C17.52 2 22 6.48 22 12Z" fill="#F7931A"/>
<path d="M16.4 10.58C16.6 9.24 15.58 8.54 14.2 8.06L14.64 6.26L13.54 5.98L13.1 7.74C12.82 7.66 12.52 7.6 12.22 7.54L12.66 5.78L11.56 5.5L11.12 7.3C10.88 7.24 10.64 7.2 10.42 7.14L8.89996 6.76L8.59996 7.94C8.59996 7.94 9.41996 8.12 9.39996 8.14C9.71996 8.18 9.93996 8.46 9.91996 8.78L8.67996 13.72C8.61996 13.94 8.37996 14.04 8.17996 13.98C8.19996 14 7.37996 13.78 7.37996 13.78L6.85996 15L8.27996 15.36C8.53996 15.42 8.79996 15.5 9.05996 15.56L8.59996 17.38L9.69996 17.66L10.14 15.86C10.44 15.94 10.74 16.02 11.02 16.08L10.58 17.88L11.68 18.16L12.14 16.34C14.02 16.7 15.42 16.56 16.02 14.86C16.5 13.5 16 12.72 15.02 12.2C15.72 12.02 16.26 11.54 16.4 10.58ZM13.9 14.1C13.56 15.46 11.26 14.72 10.52 14.54L11.12 12.12C11.88 12.3 14.26 12.66 13.9 14.1ZM14.24 10.56C13.94 11.8 12.02 11.16 11.4 11.02L11.94 8.82C12.56 8.98 14.56 9.26 14.24 10.56Z" fill="white"/>
</svg>
