<svg width="24" height="24" viewBox="0 0 24 24" fill="none" xmlns="http://www.w3.org/2000/svg">
<path d="M22 12C22 17.5228 17.5228 22 12 22C6.47715 22 2 17.5228 2 12C2 6.47715 6.47715 2 12 2C17.5228 2 22 6.47715 22 12Z" fill="url(#paint0_linear_4046_25462)"/>
<path d="M17.041 8.02513L17.181 8.23618L17.041 8.44724C12.3535 14.8492 9.62491 17.7337 8.5055 17.3819C7.80587 17.1709 7.10623 16.4673 6.4066 15.4121C6.12675 15.0603 5.91686 14.6382 5.70697 14.2864C5.56704 14.005 5.42711 13.794 5.35715 13.6533C5.28719 13.5126 5.21722 13.3719 5.21722 13.2312C5.21722 13.1608 5.21722 13.1608 5.21722 13.0905C4.3077 9.64322 6.33664 6.12563 9.76484 5.21106C11.374 4.78894 13.0531 5 14.5223 5.84422C15.2919 6.33668 16.1315 7.0402 17.041 8.02513ZM14.2425 6.26633C11.444 4.71859 7.87583 5.70352 6.33664 8.58794C5.637 9.92462 5.42711 11.4724 5.77693 12.9497C5.77693 13.0201 5.77693 13.0201 5.77693 13.0905C5.77693 13.1608 5.84689 13.3015 5.84689 13.3719C5.91686 13.5126 5.98682 13.7236 6.12675 13.9347C6.33664 14.2864 6.54653 14.6382 6.75642 14.99C7.38609 15.9045 8.01576 16.5377 8.57546 16.7487C9.27509 16.9598 12.0037 14.0754 16.3414 8.23618C15.7817 7.53267 15.0121 6.82915 14.2425 6.26633Z" fill="black"/>
<path d="M14.2425 6.26633C11.444 4.71859 7.87583 5.70352 6.33664 8.58794C5.637 9.92462 5.42711 11.4724 5.77693 12.9497C5.77693 13.0201 5.77693 13.0201 5.77693 13.0905C5.77693 13.1608 5.84689 13.3015 5.84689 13.3719C5.91686 13.5126 5.98682 13.7236 6.12675 13.9347C6.33664 14.2864 6.54653 14.6382 6.75642 14.99C7.38609 15.9045 8.01576 16.5377 8.57546 16.7487C9.27509 16.9598 12.0037 14.0754 16.3414 8.23618C15.7817 7.53267 15.0121 6.82915 14.2425 6.26633Z" fill="#EC1C79"/>
<path d="M12.5634 19C8.99524 19 6.12675 16.1156 6.12675 12.5276C6.12675 8.9397 8.99524 6.05528 12.5634 6.05528C16.1315 6.05528 19 9.01005 19 12.598C19 16.1156 16.1315 19 12.5634 19ZM12.5634 18.4372C15.7817 18.4372 18.3703 15.8342 18.3703 12.598C18.3703 9.36181 15.7817 6.75879 12.5634 6.75879C9.34506 6.75879 6.75642 9.36181 6.75642 12.598C6.75642 15.7638 9.34506 18.4372 12.5634 18.4372Z" fill="black"/>
<path d="M12.5634 18.4372C15.7817 18.4372 18.3703 15.8342 18.3703 12.598C18.3703 9.36181 15.7817 6.75879 12.5634 6.75879C9.34506 6.75879 6.75642 9.36181 6.75642 12.598C6.75642 15.7638 9.34506 18.4372 12.5634 18.4372Z" fill="white"/>
<path d="M8.22565 13.794L7.45605 11.4724H8.15568L8.57546 12.809L8.99524 11.4724H9.55495L9.97473 12.809L10.3945 11.4724H11.0242L10.2546 13.794H9.69488L9.20513 12.4573L8.71539 13.794H8.22565ZM11.304 13.7236V11.402H13.1231V11.9648H11.9337V12.3166H13.0531V12.809H11.9337V13.1608H13.193V13.7236H11.304ZM14.0326 13.7236V11.9648H13.333V11.402H15.3619V11.9648H14.6623V13.7236H14.0326ZM15.6418 13.7236V11.402H16.2714V12.2462H17.111V11.402H17.7407V13.7236H17.111V12.809H16.2714V13.7236H15.6418Z" fill="black"/>
<path d="M5.35715 10.6985C5.21722 10.6281 5.14726 10.4171 5.21722 10.2764C5.28719 10.1357 5.49708 10.0653 5.63701 10.1357L6.54653 10.6281C6.68645 10.6985 6.75642 10.9095 6.68646 11.0503C6.61649 11.191 6.4066 11.2613 6.26667 11.191L5.35715 10.6985Z" fill="black"/>
<path d="M5.28719 12.3166C5.14726 12.2462 5.0773 12.0352 5.14726 11.8945C5.21722 11.7538 5.42711 11.6834 5.56704 11.7538L6.47656 12.1759C6.61649 12.2462 6.68645 12.4573 6.61649 12.598C6.54653 12.7387 6.33664 12.809 6.19671 12.7387L5.28719 12.3166Z" fill="black"/>
<defs>
<linearGradient id="paint0_linear_4046_25462" x1="12" y1="2" x2="12" y2="22.0224" gradientUnits="userSpaceOnUse">
<stop stop-color="#EC448E"/>
<stop offset="1" stop-color="#C92A40"/>
</linearGradient>
</defs>
</svg>
