<svg width="10" height="10" viewBox="0 0 10 10" fill="none" xmlns="http://www.w3.org/2000/svg">
<path d="M5 10C7.752 10 10 7.748 10 5C10 2.248 7.748 0 5 0C2.248 0 0 2.252 0 5C0 7.752 2.252 10 5 10Z" fill="url(#paint0_linear_1934_5528)"/>
<path d="M6.448 6.08L7.864 5.264C7.94 5.22 7.984 5.14 7.984 5.052V3.42C7.984 3.332 7.936 3.252 7.864 3.208L6.448 2.392C6.372 2.348 6.28 2.348 6.204 2.392L4.788 3.208C4.712 3.252 4.668 3.332 4.668 3.42V6.34L3.676 6.912L2.684 6.34V5.196L3.676 4.624L4.332 5V4.232L3.8 3.924C3.764 3.904 3.72 3.892 3.68 3.892C3.636 3.892 3.596 3.904 3.56 3.924L2.144 4.74C2.068 4.784 2.024 4.864 2.024 4.952V6.584C2.024 6.672 2.072 6.752 2.144 6.796L3.56 7.612C3.636 7.656 3.728 7.656 3.804 7.612L5.22 6.796C5.296 6.752 5.34 6.672 5.34 6.584V3.664L5.356 3.652L6.332 3.088L7.324 3.66V4.804L6.332 5.376L5.68 5V5.768L6.212 6.076C6.288 6.12 6.38 6.12 6.456 6.076L6.448 6.08Z" fill="white"/>
<defs>
<linearGradient id="paint0_linear_1934_5528" x1="-1.82893" y1="0.812046" x2="8.48307" y2="7.13605" gradientUnits="userSpaceOnUse">
<stop stop-color="#A229C5"/>
<stop offset="1" stop-color="#7B3FE4"/>
</linearGradient>
</defs>
</svg>
